fontCallback.success({"glyphs":{"S":{"x_min":89.53125,"x_max":808.4375,"ha":900,"o":"m 748 980 l 748 766 q 602 822 674 803 q 467 841 531 841 q 342 815 383 841 q 302 735 302 790 q 329 672 302 695 q 428 633 356 649 l 528 611 q 744 507 680 577 q 808 311 808 438 q 719 62 808 143 q 446 -19 630 -19 q 272 -1 359 -19 q 97 52 185 16 l 97 273 q 266 195 185 221 q 423 169 347 169 q 541 198 500 169 q 582 279 582 226 q 554 352 582 326 q 443 398 526 378 l 352 421 q 152 524 216 453 q 89 716 89 596 q 177 949 89 868 q 430 1030 265 1030 q 584 1018 505 1030 q 748 980 663 1005 "},"¦":{"x_min":158.703125,"x_max":297.0625,"ha":456,"o":"m 297 971 l 297 457 l 158 457 l 158 971 l 297 971 m 297 276 l 297 -237 l 158 -237 l 158 276 l 297 276 "},"/":{"x_min":0,"x_max":456.4375,"ha":456,"o":"m 320 1012 l 456 1012 l 134 -128 l 0 -128 l 320 1012 "},"₢":{"x_min":36.625,"x_max":833.53125,"ha":869,"o":"m 588 175 q 645 192 617 181 q 767 265 705 215 l 767 55 q 639 0 706 18 q 502 -18 573 -18 q 162 122 287 -18 q 36 505 36 263 q 162 889 36 748 q 502 1030 287 1030 q 639 1011 573 1030 q 767 955 706 992 l 767 746 q 645 818 705 795 q 520 841 585 841 q 333 752 401 841 q 265 505 265 662 q 333 259 265 348 q 402 198 363 219 l 402 683 l 588 683 l 588 571 q 670 669 623 638 q 781 699 716 699 q 801 699 790 699 q 832 695 812 698 l 833 497 q 784 517 808 510 q 735 523 760 523 q 626 469 664 523 q 588 314 588 415 l 588 175 "},"y":{"x_min":14.921875,"x_max":792.171875,"ha":815,"o":"m 14 759 l 233 759 l 417 244 l 573 759 l 792 759 l 504 -71 q 403 -249 461 -198 q 251 -299 345 -299 l 124 -299 l 124 -140 l 193 -140 q 274 -120 248 -140 q 314 -50 299 -101 l 320 -29 l 14 759 "},"฿":{"x_min":120.046875,"x_max":840.3125,"ha":928,"o":"m 503 -204 l 404 -204 l 404 0 l 120 0 l 120 891 l 404 891 l 404 1055 l 503 1055 l 503 890 q 722 834 651 883 q 804 655 804 778 q 774 544 804 590 q 687 476 744 499 q 800 397 760 455 q 840 255 840 339 q 754 63 840 126 q 503 0 671 1 l 503 -204 m 404 149 l 404 383 l 338 383 l 338 149 l 404 149 m 503 381 l 503 151 q 573 179 547 157 q 607 267 607 208 q 573 354 607 325 q 503 381 548 375 m 404 539 l 404 728 l 338 728 l 338 539 l 404 539 m 503 723 l 503 543 q 543 563 527 549 q 571 634 571 587 q 543 704 571 679 q 503 723 527 718 "},"Á":{"x_min":6.109375,"x_max":961.71875,"ha":967,"o":"m 668 184 l 300 184 l 242 0 l 6 0 l 343 1012 l 623 1012 l 961 0 l 725 0 l 668 184 m 358 372 l 608 372 l 484 775 l 358 372 m 499 1287 l 672 1287 l 497 1108 l 378 1108 l 499 1287 "},"g":{"x_min":56.296875,"x_max":790.125,"ha":895,"o":"m 570 128 q 470 31 524 62 q 344 0 416 0 q 138 109 219 0 q 56 388 56 219 q 138 667 56 558 q 344 776 219 776 q 470 745 416 776 q 570 647 524 714 l 570 759 l 790 759 l 790 76 q 686 -203 790 -106 q 383 -299 581 -299 q 260 -288 320 -299 q 139 -255 200 -278 l 139 -66 q 252 -121 197 -103 q 362 -139 307 -139 q 520 -86 470 -139 q 570 76 570 -34 l 570 128 m 425 601 q 320 545 358 601 q 282 388 282 490 q 319 230 282 284 q 425 176 356 176 q 532 231 494 176 q 570 388 570 287 q 532 545 570 490 q 425 601 494 601 "},"²":{"x_min":66.46875,"x_max":477.46875,"ha":547,"o":"m 251 567 l 477 567 l 477 453 l 66 453 l 66 556 l 257 737 q 310 800 295 773 q 326 854 326 827 q 304 909 326 888 q 246 930 282 930 q 164 915 208 930 q 70 868 121 900 l 70 994 q 172 1021 123 1012 q 268 1030 222 1030 q 419 987 364 1030 q 474 868 474 943 q 453 778 474 819 q 369 678 431 737 l 251 567 "},"ë":{"x_min":53.578125,"x_max":787.421875,"ha":848,"o":"m 787 381 l 787 312 l 276 312 q 331 184 284 227 q 465 141 379 141 q 606 164 534 141 q 754 233 678 187 l 754 46 q 599 -3 677 13 q 444 -19 522 -19 q 156 85 259 -19 q 53 379 53 189 q 154 671 53 564 q 432 777 255 777 q 690 670 594 777 q 787 381 787 562 m 562 462 q 526 574 562 531 q 431 616 490 616 q 328 576 368 616 q 278 462 288 537 l 562 462 m 252 1074 l 395 1074 l 395 908 l 252 908 l 252 1074 m 493 1074 l 636 1074 l 636 908 l 493 908 l 493 1074 "},"Î":{"x_min":2.09375,"x_max":461.921875,"ha":465,"o":"m 114 1012 l 349 1012 l 349 0 l 114 0 l 114 1012 m 138 1287 l 326 1287 l 461 1108 l 353 1108 l 232 1218 l 110 1108 l 2 1108 l 138 1287 "},"Ꙅ":{"x_min":32.5625,"x_max":751.46875,"ha":900,"o":"m 92 980 q 256 1018 177 1005 q 411 1030 335 1030 q 663 949 575 1030 q 751 716 751 868 q 688 524 751 596 q 488 421 625 453 l 397 398 q 286 352 314 378 q 259 279 259 326 q 299 198 259 226 q 417 169 340 169 q 575 195 493 169 q 743 273 656 221 l 743 52 q 569 -1 656 16 q 394 -19 481 -19 q 122 62 210 -19 q 32 311 32 143 q 96 507 32 438 q 312 611 160 577 l 412 633 q 511 672 484 649 q 538 735 538 695 q 498 815 538 790 q 373 841 457 841 q 238 822 309 841 q 92 766 167 803 l 92 980 "},"e":{"x_min":53.578125,"x_max":787.421875,"ha":848,"o":"m 787 381 l 787 312 l 276 312 q 331 184 284 227 q 465 141 379 141 q 606 164 534 141 q 754 233 678 187 l 754 46 q 599 -3 677 13 q 444 -19 522 -19 q 156 85 259 -19 q 53 379 53 189 q 154 671 53 564 q 432 777 255 777 q 690 670 594 777 q 787 381 787 562 m 562 462 q 526 574 562 531 q 431 616 490 616 q 328 576 368 616 q 278 462 288 537 l 562 462 "},"Ã":{"x_min":6.109375,"x_max":961.71875,"ha":967,"o":"m 668 184 l 300 184 l 242 0 l 6 0 l 343 1012 l 623 1012 l 961 0 l 725 0 l 668 184 m 358 372 l 608 372 l 484 775 l 358 372 m 484 1146 l 450 1169 q 444 1173 448 1171 q 399 1191 416 1191 q 368 1171 380 1191 q 355 1116 355 1150 l 355 1112 l 271 1112 q 271 1123 271 1116 q 272 1133 272 1129 q 304 1249 272 1205 q 390 1293 337 1293 q 435 1284 413 1293 q 481 1260 458 1276 l 517 1233 q 542 1219 530 1224 q 564 1213 554 1213 q 598 1234 587 1213 q 610 1293 610 1254 l 695 1293 q 695 1282 695 1289 q 694 1272 694 1275 q 662 1156 694 1200 q 576 1112 629 1112 q 531 1120 553 1112 q 484 1146 510 1127 "},"J":{"x_min":-70.859375,"x_max":349.640625,"ha":465,"o":"m 114 1012 l 349 1012 l 349 98 q 257 -184 349 -90 q -22 -278 164 -278 l -70 -278 l -70 -80 l -34 -80 q 76 -35 39 -80 q 114 98 114 10 l 114 1012 "},"»":{"x_min":118.015625,"x_max":710.78125,"ha":807,"o":"m 410 720 l 710 469 l 710 343 l 410 92 l 410 257 l 588 406 l 410 556 l 410 720 m 118 720 l 417 469 l 417 343 l 118 92 l 118 257 l 295 406 l 118 556 l 118 720 "},"ꙮ":{"x_min":35.265625,"x_max":1165.859375,"ha":1201,"o":"m 733 14 l 823 14 l 823 -90 l 733 -90 l 733 14 m 378 14 l 467 14 l 467 -90 l 378 -90 l 378 14 m 733 826 l 823 826 l 823 720 l 733 720 l 733 826 m 378 826 l 467 826 l 467 720 l 378 720 l 378 826 m 201 421 l 290 421 l 290 315 l 201 315 l 201 421 m 911 421 l 1001 421 l 1001 315 l 911 315 l 911 421 m 331 497 q 246 543 300 543 q 160 497 191 543 q 128 372 128 451 q 160 246 128 292 q 246 200 191 200 q 331 246 300 200 q 363 372 363 292 q 331 497 363 451 m 509 902 q 423 948 478 948 q 337 902 368 948 q 305 777 305 856 q 337 652 305 697 q 423 606 368 606 q 509 652 478 606 q 540 777 540 697 q 509 902 540 856 m 864 902 q 778 948 832 948 q 692 902 723 948 q 660 777 660 856 q 692 652 660 697 q 778 606 723 606 q 864 652 832 606 q 895 777 895 697 q 864 902 895 856 m 1042 497 q 956 543 1010 543 q 870 497 902 543 q 838 372 838 451 q 870 246 838 292 q 956 200 902 200 q 1042 246 1010 200 q 1073 372 1073 292 q 1042 497 1073 451 m 686 497 q 600 543 655 543 q 514 497 546 543 q 482 372 482 451 q 514 246 482 292 q 600 200 546 200 q 686 246 655 200 q 717 372 717 292 q 686 497 717 451 m 509 91 q 423 137 478 137 q 337 91 368 137 q 305 -34 305 45 q 337 -159 305 -113 q 423 -205 368 -205 q 509 -159 478 -205 q 540 -34 540 -113 q 509 91 540 45 m 864 91 q 778 137 832 137 q 692 91 723 137 q 660 -34 660 45 q 692 -159 660 -113 q 778 -205 723 -205 q 864 -159 832 -205 q 895 -34 895 -113 q 864 91 895 45 m 956 626 q 1108 556 1051 626 q 1165 370 1165 487 q 1108 187 1165 256 q 956 118 1051 118 l 954 118 q 988 -34 988 55 q 931 -219 988 -150 q 778 -288 874 -288 q 625 -220 682 -288 q 600 -182 610 -202 q 576 -219 590 -202 q 423 -288 519 -288 q 270 -219 326 -288 q 213 -34 213 -151 q 247 118 213 55 q 246 118 246 118 q 92 186 149 118 q 35 370 35 255 q 92 556 35 487 q 246 626 149 626 l 246 626 q 213 777 213 687 q 270 962 213 893 q 423 1031 326 1031 q 576 963 519 1031 q 600 925 590 945 q 625 963 610 945 q 778 1031 682 1031 q 931 962 874 1031 q 988 777 988 893 q 954 626 988 687 l 956 626 m 555 421 l 645 421 l 645 315 l 555 315 l 555 421 "},"₨":{"x_min":114.625,"x_max":1446.65625,"ha":1506,"o":"m 448 563 q 554 594 522 563 q 586 694 586 624 q 554 793 586 763 q 448 823 522 823 l 349 823 l 349 563 l 448 563 m 937 1 l 937 0 l 687 0 l 576 251 q 507 355 542 327 q 416 383 473 383 l 349 383 l 349 0 l 114 0 l 114 1012 l 473 1012 q 737 945 653 1012 q 821 733 821 878 q 777 568 821 632 q 646 473 734 503 q 732 418 694 461 q 809 287 771 375 l 845 207 q 971 159 906 175 q 1110 141 1039 141 q 1206 161 1174 141 q 1239 219 1239 181 q 1216 268 1239 252 q 1127 293 1194 284 l 1089 298 q 885 373 943 318 q 826 540 826 428 q 901 719 826 661 q 1129 777 975 777 q 1256 767 1189 777 q 1401 735 1322 757 l 1401 551 q 1265 600 1330 583 q 1142 616 1199 616 q 1049 599 1079 616 q 1019 545 1019 581 q 1042 501 1019 516 q 1124 478 1064 485 l 1162 472 q 1388 394 1330 448 q 1446 223 1446 339 q 1365 41 1446 102 q 1125 -19 1285 -19 q 986 -7 1058 -19 q 937 1 961 -3 "},"₪":{"x_min":48.15625,"x_max":1074.3125,"ha":1130,"o":"m 48 1012 l 408 1012 q 680 907 591 1012 q 769 587 769 802 l 769 353 l 609 353 l 609 587 q 575 766 609 712 q 436 820 541 820 l 265 820 l 263 -18 l 48 -18 l 48 1012 m 1074 -19 l 713 -18 q 441 85 531 -18 q 352 405 352 190 l 352 639 l 512 639 l 512 405 q 546 226 512 280 q 686 172 580 172 l 858 172 l 858 1012 l 1074 1012 l 1074 -19 "},"Ꙭ":{"x_min":62.390625,"x_max":1694.875,"ha":1758,"o":"m 1116 633 l 1336 633 l 1336 371 l 1116 371 l 1116 633 m 421 633 l 641 633 l 641 371 l 421 371 l 421 633 m 531 1030 q 878 887 754 1030 q 1226 1030 1003 1030 q 1570 891 1445 1030 q 1694 505 1694 751 q 1570 120 1694 259 q 1226 -19 1445 -19 q 878 124 1003 -19 q 531 -19 754 -19 q 187 120 311 -19 q 62 505 62 259 q 187 891 62 751 q 531 1030 311 1030 m 531 841 q 364 753 423 841 q 305 505 305 665 q 364 257 305 345 q 531 169 423 169 q 698 257 638 169 q 757 505 757 345 q 698 753 757 665 q 531 841 638 841 m 1226 841 q 1059 753 1119 841 q 1000 505 1000 665 q 1059 257 1000 345 q 1226 169 1119 169 q 1393 257 1334 169 q 1452 505 1452 345 q 1393 753 1452 665 q 1226 841 1334 841 "},"©":{"x_min":172.953125,"x_max":1077.015625,"ha":1250,"o":"m 807 763 l 807 617 q 738 654 772 642 q 670 666 705 666 q 562 623 600 666 q 523 502 523 579 q 562 381 523 424 q 670 339 600 339 q 744 351 709 339 q 807 387 779 363 l 807 242 q 727 220 767 227 q 649 212 687 212 q 443 291 521 212 q 366 502 366 370 q 443 713 366 634 q 649 792 521 792 q 731 785 692 792 q 807 763 770 778 m 625 902 q 487 873 551 902 q 370 784 424 843 q 291 655 318 725 q 265 502 265 585 q 291 350 265 420 q 370 221 318 280 q 487 133 423 162 q 625 104 551 104 q 763 133 699 104 q 878 221 826 162 q 958 350 931 280 q 985 502 985 420 q 958 655 985 585 q 878 784 931 725 q 761 873 825 844 q 625 902 698 902 m 625 1007 q 797 969 717 1007 q 944 858 878 932 q 1044 695 1011 784 q 1077 502 1077 607 q 1044 310 1077 399 q 944 148 1011 222 q 797 37 878 74 q 625 0 717 0 q 452 37 532 0 q 305 148 371 74 q 205 310 238 222 q 172 502 172 399 q 205 695 172 607 q 305 858 238 784 q 452 969 371 932 q 625 1007 532 1007 "},"ò":{"x_min":53.578125,"x_max":805.046875,"ha":859,"o":"m 430 604 q 319 546 357 604 q 281 379 281 488 q 319 211 281 269 q 430 153 357 153 q 539 211 501 153 q 577 379 577 269 q 539 546 577 488 q 430 604 501 604 m 430 777 q 706 672 607 777 q 805 379 805 566 q 706 86 805 191 q 430 -19 607 -19 q 153 86 253 -19 q 53 379 53 191 q 153 672 53 566 q 430 777 253 777 m 361 1110 l 534 855 l 414 855 l 189 1110 l 361 1110 "},"Ꙫ":{"x_min":62.390625,"x_max":1234.359375,"ha":1296,"o":"m 398 627 l 599 627 l 599 378 l 398 378 l 398 627 m 697 627 l 898 627 l 898 378 l 697 378 l 697 627 m 648 841 q 395 753 485 841 q 305 505 305 665 q 395 257 305 345 q 648 169 485 169 q 901 257 811 169 q 991 505 991 345 q 901 753 991 665 q 648 841 811 841 m 648 1030 q 1078 891 923 1030 q 1234 505 1234 751 q 1078 120 1234 259 q 648 -19 923 -19 q 218 120 374 -19 q 62 505 62 259 q 218 891 62 751 q 648 1030 374 1030 "},"^":{"x_min":126.15625,"x_max":921.03125,"ha":1047,"o":"m 598 1012 l 921 634 l 773 634 l 523 838 l 274 634 l 126 634 l 448 1012 l 598 1012 "},"«":{"x_min":96.3125,"x_max":689.75,"ha":807,"o":"m 397 720 l 397 556 l 218 406 l 397 257 l 397 92 l 96 343 l 96 469 l 397 720 m 689 720 l 689 556 l 511 406 l 689 257 l 689 92 l 388 343 l 388 469 l 689 720 "},"D":{"x_min":114.625,"x_max":972.578125,"ha":1038,"o":"m 349 815 l 349 197 l 434 197 q 653 276 577 197 q 729 507 729 356 q 654 736 729 657 q 434 815 578 815 l 349 815 m 114 1012 l 362 1012 q 671 979 570 1012 q 845 868 773 946 q 941 710 910 799 q 972 507 972 620 q 941 302 972 392 q 845 144 910 212 q 670 32 772 65 q 362 0 567 0 l 114 0 l 114 1012 "},"ꙥ":{"x_min":69.171875,"x_max":1110.25,"ha":1140,"o":"m 69 0 l 69 173 q 201 277 177 198 q 219 635 219 337 l 219 759 l 1110 759 l 1110 609 l 810 609 l 810 0 l 592 0 l 592 585 l 438 585 l 438 560 q 396 176 438 263 q 69 0 310 0 "},"₰":{"x_min":16.953125,"x_max":810.46875,"ha":869,"o":"m 144 332 l 16 421 q 218 604 118 604 q 336 558 290 604 q 423 485 408 485 q 466 503 450 485 q 343 789 343 623 q 392 965 343 906 q 553 1030 446 1030 q 717 965 657 1030 q 768 789 768 909 q 703 519 768 635 q 810 279 810 408 q 722 54 810 127 q 484 -19 632 -19 l 484 134 q 603 177 558 134 q 636 280 636 208 q 594 383 636 339 q 425 305 522 305 q 299 375 349 305 q 233 430 259 430 q 144 332 202 430 m 569 627 q 603 789 603 700 q 590 867 603 838 q 550 906 572 906 q 510 867 525 906 q 498 789 498 834 q 569 627 498 687 "},"ÿ":{"x_min":14.921875,"x_max":792.171875,"ha":815,"o":"m 14 759 l 233 759 l 417 244 l 573 759 l 792 759 l 504 -71 q 403 -249 461 -198 q 251 -299 345 -299 l 124 -299 l 124 -140 l 193 -140 q 274 -120 248 -140 q 314 -50 299 -101 l 320 -29 l 14 759 m 215 1074 l 358 1074 l 358 908 l 215 908 l 215 1074 m 456 1074 l 599 1074 l 599 908 l 456 908 l 456 1074 "},"í":{"x_min":105.125,"x_max":484.671875,"ha":428,"o":"m 105 759 l 323 759 l 323 0 l 105 0 l 105 759 m 311 1110 l 484 1110 l 259 855 l 139 855 l 311 1110 "},"w":{"x_min":44.078125,"x_max":1111.609375,"ha":1154,"o":"m 44 759 l 256 759 l 370 236 l 486 759 l 668 759 l 784 241 l 899 759 l 1111 759 l 931 0 l 693 0 l 577 522 l 462 0 l 223 0 l 44 759 "},"$":{"x_min":97.671875,"x_max":784.703125,"ha":869,"o":"m 485 -204 l 386 -204 l 385 0 q 238 18 309 3 q 99 62 166 34 l 99 240 q 240 178 168 200 q 386 154 312 157 l 386 365 l 366 369 q 159 459 220 398 q 97 634 97 520 q 172 824 97 756 q 385 898 246 892 l 386 1055 l 485 1055 l 485 901 q 607 884 546 895 q 729 854 668 872 l 729 682 q 607 726 668 710 q 485 746 546 742 l 485 551 l 504 547 q 722 456 659 520 q 784 269 784 393 q 710 77 784 144 q 485 1 636 10 l 485 -204 m 386 567 l 386 744 q 317 717 343 741 q 290 658 290 694 q 315 595 290 618 q 386 567 339 573 m 485 345 l 485 157 q 564 180 538 158 q 591 247 591 202 q 566 316 591 293 q 485 345 542 339 "},"Ꙩ":{"x_min":62.390625,"x_max":999.703125,"ha":1062,"o":"m 531 841 q 364 753 423 841 q 305 505 305 665 q 364 257 305 345 q 531 169 423 169 q 698 257 638 169 q 757 505 757 345 q 698 753 757 665 q 531 841 638 841 m 531 1030 q 875 891 750 1030 q 999 505 999 751 q 875 120 999 259 q 531 -19 750 -19 q 187 120 311 -19 q 62 505 62 259 q 187 891 62 751 q 531 1030 311 1030 m 421 633 l 641 633 l 641 371 l 421 371 l 421 633 "},"\\":{"x_min":0,"x_max":456.4375,"ha":456,"o":"m 320 -128 l 0 1012 l 134 1012 l 456 -128 l 320 -128 "},"ꙗ":{"x_min":105.125,"x_max":1100.078125,"ha":1198,"o":"m 1100 433 l 1100 0 l 879 0 l 879 112 q 780 11 835 43 q 647 -19 725 -19 q 474 49 540 -19 q 408 227 408 118 q 416 305 408 269 l 323 305 l 323 0 l 105 0 l 105 759 l 323 759 l 323 455 l 547 455 q 750 486 625 486 l 879 486 l 879 505 q 838 589 879 562 q 710 616 797 616 q 580 600 640 616 q 467 554 520 585 l 467 739 q 609 768 538 758 q 750 777 680 777 q 1018 696 935 777 q 1100 433 1100 615 m 766 341 q 663 316 697 341 q 628 240 628 290 q 656 167 628 193 q 733 141 684 141 q 837 190 795 141 q 879 314 879 240 l 879 341 l 766 341 "},"Ì":{"x_min":13.546875,"x_max":349.96875,"ha":465,"o":"m 114 1012 l 349 1012 l 349 0 l 114 0 l 114 1012 m 185 1287 l 307 1108 l 187 1108 l 13 1287 l 185 1287 "},"µ":{"x_min":106.484375,"x_max":880.328125,"ha":920,"o":"m 106 -290 l 106 759 l 326 759 l 326 318 q 357 201 326 239 q 449 162 387 162 q 543 201 512 162 q 573 318 573 239 l 573 759 l 793 759 l 793 251 q 803 184 793 203 q 837 165 813 165 q 858 168 848 165 q 880 180 868 172 l 880 10 q 819 -12 847 -4 q 763 -19 790 -19 q 674 5 709 -19 q 619 87 640 31 q 549 7 590 33 q 453 -19 507 -19 q 376 -3 408 -19 q 326 44 344 12 l 326 -290 l 106 -290 "},"Ç":{"x_min":62.390625,"x_max":837.609375,"ha":917,"o":"m 837 55 q 702 0 772 18 q 556 -19 632 -19 q 195 121 328 -19 q 62 505 62 263 q 195 889 62 748 q 556 1030 328 1030 q 702 1011 632 1030 q 837 955 772 992 l 837 746 q 708 818 771 795 q 575 841 644 841 q 377 752 448 841 q 305 505 305 662 q 377 259 305 348 q 575 169 448 169 q 708 192 644 169 q 837 265 771 215 l 837 55 m 594 0 q 646 -77 629 -42 q 663 -145 663 -113 q 626 -241 663 -210 q 510 -271 588 -271 q 450 -267 481 -271 q 387 -254 419 -263 l 387 -151 q 443 -167 417 -162 q 488 -172 468 -172 q 543 -156 523 -172 q 563 -113 563 -141 q 550 -68 563 -96 q 509 0 536 -40 l 594 0 "},"-":{"x_min":67.828125,"x_max":451.015625,"ha":519,"o":"m 67 498 l 451 498 l 451 301 l 67 301 l 67 498 "},"ꙑ":{"x_min":24.421875,"x_max":1182.515625,"ha":1284,"o":"m 588 151 q 660 173 636 151 q 685 237 685 194 q 660 300 685 279 q 588 321 636 321 l 477 321 l 477 151 l 588 151 m 259 0 l 259 609 l 24 609 l 24 759 l 477 759 l 477 471 l 600 471 q 814 414 739 471 q 889 234 889 358 q 813 55 889 111 q 600 0 738 0 l 259 0 m 964 759 l 1182 759 l 1182 0 l 964 0 l 964 759 "},"Q":{"x_min":62.390625,"x_max":999.703125,"ha":1062,"o":"m 556 -18 l 537 -18 q 187 120 312 -18 q 62 505 62 258 q 187 891 62 751 q 531 1030 311 1030 q 876 892 752 1030 q 999 505 999 754 q 934 210 999 334 q 745 25 868 87 l 929 -202 l 705 -202 l 556 -18 m 531 841 q 364 753 423 841 q 305 505 305 665 q 363 256 305 342 q 531 169 421 169 q 698 257 638 169 q 757 505 757 345 q 698 753 757 665 q 531 841 638 841 "},"M":{"x_min":114.625,"x_max":1128.5625,"ha":1244,"o":"m 114 1012 l 413 1012 l 621 470 l 830 1012 l 1128 1012 l 1128 0 l 906 0 l 906 740 l 696 194 l 547 194 l 337 740 l 337 0 l 114 0 l 114 1012 "},"C":{"x_min":62.390625,"x_max":837.609375,"ha":917,"o":"m 837 55 q 702 0 772 18 q 556 -19 632 -19 q 195 121 328 -19 q 62 505 62 263 q 195 889 62 748 q 556 1030 328 1030 q 702 1011 632 1030 q 837 955 772 992 l 837 746 q 708 818 771 795 q 575 841 644 841 q 377 752 448 841 q 305 505 305 662 q 377 259 305 348 q 575 169 448 169 q 708 192 644 169 q 837 265 771 215 l 837 55 "},"ꚋ":{"x_min":4.75,"x_max":886.4375,"ha":983,"o":"m 4 759 l 718 759 l 718 609 l 471 609 l 471 450 l 629 450 q 820 370 754 450 q 886 135 886 289 l 886 13 q 820 -219 886 -139 q 629 -299 754 -299 l 520 -299 l 520 -140 l 558 -140 q 643 -109 619 -140 q 666 13 666 -78 l 666 137 q 643 259 666 228 q 558 290 619 290 l 471 290 l 471 0 l 253 0 l 253 609 l 4 609 l 4 759 "},"!":{"x_min":174.984375,"x_max":394.71875,"ha":570,"o":"m 174 1012 l 394 1012 l 394 623 l 363 340 l 206 340 l 174 623 l 174 1012 m 174 241 l 394 241 l 394 0 l 174 0 l 174 241 "},"ç":{"x_min":53.578125,"x_max":657.203125,"ha":741,"o":"m 657 735 l 657 537 q 568 588 613 571 q 474 604 522 604 q 332 544 383 604 q 281 379 281 485 q 332 213 281 272 q 474 153 383 153 q 572 170 526 153 q 657 221 618 187 l 657 22 q 553 -9 606 1 q 447 -19 500 -19 q 158 85 262 -19 q 53 379 53 191 q 158 672 53 567 q 447 777 262 777 q 553 767 501 777 q 657 735 605 756 m 480 0 q 532 -77 515 -42 q 549 -145 549 -113 q 512 -241 549 -210 q 396 -271 474 -271 q 336 -267 367 -271 q 273 -254 305 -263 l 273 -151 q 329 -167 303 -162 q 374 -172 354 -172 q 429 -156 409 -172 q 449 -113 449 -141 q 436 -68 449 -96 q 395 0 422 -40 l 480 0 "},"È":{"x_min":114.625,"x_max":762.328125,"ha":854,"o":"m 114 1012 l 748 1012 l 748 815 l 349 815 l 349 626 l 725 626 l 725 429 l 349 429 l 349 197 l 762 197 l 762 0 l 114 0 l 114 1012 m 390 1287 l 512 1108 l 392 1108 l 218 1287 l 390 1287 "},"{":{"x_min":155.984375,"x_max":733.84375,"ha":890,"o":"m 733 -73 l 733 -226 l 600 -226 q 406 -166 467 -226 q 345 23 345 -107 l 345 153 q 313 295 345 255 q 193 335 280 335 l 155 335 l 155 486 l 193 486 q 313 525 280 486 q 345 666 345 564 l 345 805 q 406 995 345 936 q 600 1055 467 1055 l 733 1055 l 733 902 l 691 902 q 579 873 605 902 q 553 747 553 843 l 553 634 q 525 480 553 528 q 431 415 498 432 q 526 348 499 396 q 553 194 553 300 l 553 82 q 579 -44 553 -14 q 691 -73 605 -73 l 733 -73 "},"X":{"x_min":23.734375,"x_max":938.65625,"ha":964,"o":"m 622 516 l 938 0 l 693 0 l 480 345 l 269 0 l 23 0 l 339 516 l 35 1012 l 281 1012 l 480 686 l 680 1012 l 926 1012 l 622 516 "},"ô":{"x_min":53.578125,"x_max":805.046875,"ha":859,"o":"m 430 604 q 319 546 357 604 q 281 379 281 488 q 319 211 281 269 q 430 153 357 153 q 539 211 501 153 q 577 379 577 269 q 539 546 577 488 q 430 604 501 604 m 430 777 q 706 672 607 777 q 805 379 805 566 q 706 86 805 191 q 430 -19 607 -19 q 153 86 253 -19 q 53 379 53 191 q 153 672 53 566 q 430 777 253 777 m 355 1110 l 503 1110 l 659 855 l 551 855 l 429 1008 l 308 855 l 199 855 l 355 1110 "},"¼":{"x_min":61.28125,"x_max":1196.140625,"ha":1294,"o":"m 971 434 l 825 215 l 971 215 l 971 434 m 960 566 l 1112 566 l 1112 215 l 1196 215 l 1196 109 l 1112 109 l 1112 0 l 971 0 l 971 109 l 732 109 l 732 223 l 960 566 m 447 -19 l 310 -19 l 880 1030 l 1017 1030 l 447 -19 m 72 559 l 198 559 l 198 912 l 61 877 l 61 986 l 201 1019 l 338 1019 l 338 559 l 463 559 l 463 453 l 72 453 l 72 559 "},"#":{"x_min":84.78125,"x_max":962.390625,"ha":1047,"o":"m 556 996 l 497 735 l 658 735 l 717 996 l 852 996 l 793 735 l 962 735 l 962 591 l 760 591 l 718 405 l 892 405 l 892 259 l 687 259 l 628 0 l 493 0 l 552 259 l 391 259 l 332 0 l 196 0 l 255 259 l 84 259 l 84 405 l 284 405 l 327 591 l 155 591 l 155 735 l 361 735 l 419 996 l 556 996 m 625 591 l 463 591 l 421 405 l 582 405 l 625 591 "},"Ê":{"x_min":114.625,"x_max":762.328125,"ha":854,"o":"m 114 1012 l 748 1012 l 748 815 l 349 815 l 349 626 l 725 626 l 725 429 l 349 429 l 349 197 l 762 197 l 762 0 l 114 0 l 114 1012 m 328 1287 l 516 1287 l 651 1108 l 543 1108 l 422 1218 l 300 1108 l 192 1108 l 328 1287 "},")":{"x_min":100.375,"x_max":463.90625,"ha":571,"o":"m 100 -183 q 217 132 178 -21 q 256 436 256 286 q 217 739 256 585 q 100 1053 178 893 l 281 1053 q 419 735 374 887 q 463 434 463 583 q 419 135 463 286 q 281 -183 375 -15 l 100 -183 "},"Ꙕ":{"x_min":69.171875,"x_max":1352.375,"ha":1467,"o":"m 1001 604 q 1117 604 1001 604 l 1117 1012 l 1352 1012 l 1352 0 l 1117 0 l 1117 406 l 1001 406 q 870 108 984 236 q 537 -19 756 -19 q 193 120 318 -19 q 69 505 69 259 q 193 891 69 751 q 537 1030 318 1030 q 870 902 756 1030 q 1001 604 984 774 m 537 841 q 370 753 430 841 q 311 505 311 665 q 370 257 311 345 q 537 169 430 169 q 704 257 644 169 q 763 505 763 345 q 704 753 763 665 q 537 841 644 841 "},"Å":{"x_min":6.109375,"x_max":961.71875,"ha":967,"o":"m 630 992 l 961 0 l 725 0 l 668 184 l 300 184 l 242 0 l 6 0 l 337 992 q 316 1041 323 1015 q 309 1096 309 1066 q 361 1232 309 1175 q 484 1289 412 1289 q 605 1232 554 1289 q 657 1096 657 1175 q 650 1038 657 1064 q 630 992 644 1012 m 404 1096 q 427 1033 404 1059 q 484 1007 451 1007 q 540 1033 516 1007 q 564 1096 564 1059 q 540 1158 564 1132 q 484 1184 516 1184 q 427 1158 451 1184 q 404 1096 404 1132 m 358 372 l 608 372 l 484 775 l 358 372 "},"ø":{"x_min":47.46875,"x_max":806.40625,"ha":859,"o":"m 522 567 q 481 595 504 585 q 430 604 459 604 q 319 546 357 604 q 281 379 281 488 q 283 329 281 351 q 290 288 285 307 l 522 567 m 333 194 q 376 164 352 174 q 430 153 400 153 q 539 211 501 153 q 577 379 577 269 q 575 431 577 408 q 569 473 573 453 l 333 194 m 136 107 q 74 227 94 160 q 53 379 53 295 q 153 672 53 566 q 430 777 253 777 q 549 763 495 777 q 649 718 604 748 l 739 825 l 806 756 l 720 655 q 784 533 763 601 q 805 379 805 464 q 706 86 805 191 q 430 -19 607 -19 q 308 -4 364 -19 q 206 41 253 10 l 115 -63 l 47 0 l 136 107 "},"â":{"x_min":53.578125,"x_max":745.359375,"ha":843,"o":"m 411 341 q 308 316 343 341 q 274 240 274 290 q 301 167 274 193 q 379 141 329 141 q 482 190 440 141 q 524 314 524 240 l 524 341 l 411 341 m 745 433 l 745 0 l 524 0 l 524 112 q 425 11 480 43 q 292 -19 370 -19 q 119 49 185 -19 q 53 227 53 118 q 136 423 53 361 q 396 486 219 486 l 524 486 l 524 505 q 483 589 524 562 q 356 616 442 616 q 225 600 286 616 q 113 554 165 585 l 113 739 q 254 768 183 758 q 396 777 325 777 q 663 696 581 777 q 745 433 745 615 m 351 1110 l 499 1110 l 655 855 l 547 855 l 425 1008 l 304 855 l 195 855 l 351 1110 "},"}":{"x_min":155.984375,"x_max":733.84375,"ha":890,"o":"m 155 -73 l 198 -73 q 310 -44 284 -73 q 336 82 336 -14 l 336 194 q 363 348 336 300 q 459 415 391 396 q 363 480 391 432 q 336 634 336 528 l 336 747 q 310 873 336 843 q 198 902 284 902 l 155 902 l 155 1055 l 288 1055 q 482 995 421 1055 q 543 805 543 936 l 543 666 q 576 525 543 564 q 696 486 609 486 l 733 486 l 733 335 l 696 335 q 576 295 609 335 q 543 153 543 255 l 543 23 q 482 -166 543 -107 q 288 -226 421 -226 l 155 -226 l 155 -73 "},"Ä":{"x_min":6.109375,"x_max":961.71875,"ha":967,"o":"m 668 184 l 300 184 l 242 0 l 6 0 l 343 1012 l 623 1012 l 961 0 l 725 0 l 668 184 m 358 372 l 608 372 l 484 775 l 358 372 m 287 1287 l 430 1287 l 430 1121 l 287 1121 l 287 1287 m 527 1287 l 671 1287 l 671 1121 l 527 1121 l 527 1287 "},"Ꙥ":{"x_min":57.65625,"x_max":1336.09375,"ha":1370,"o":"m 57 0 l 57 197 q 243 328 212 216 q 274 821 274 440 l 274 1012 l 1336 1012 l 1336 815 l 923 815 l 923 0 l 688 0 l 688 815 l 510 815 l 510 753 q 450 209 510 381 q 57 0 391 37 "},"¸":{"x_min":160.0625,"x_max":436.78125,"ha":625,"o":"m 367 0 q 419 -77 402 -42 q 436 -145 436 -113 q 399 -241 436 -210 q 283 -271 361 -271 q 223 -267 254 -271 q 160 -254 192 -263 l 160 -151 q 216 -167 190 -162 q 261 -172 241 -172 q 316 -156 296 -172 q 336 -113 336 -141 q 323 -68 336 -96 q 282 0 309 -40 l 367 0 "},"a":{"x_min":53.578125,"x_max":745.359375,"ha":843,"o":"m 411 341 q 308 316 343 341 q 274 240 274 290 q 301 167 274 193 q 379 141 329 141 q 482 190 440 141 q 524 314 524 240 l 524 341 l 411 341 m 745 433 l 745 0 l 524 0 l 524 112 q 425 11 480 43 q 292 -19 370 -19 q 119 49 185 -19 q 53 227 53 118 q 136 423 53 361 q 396 486 219 486 l 524 486 l 524 505 q 483 589 524 562 q 356 616 442 616 q 225 600 286 616 q 113 554 165 585 l 113 739 q 254 768 183 758 q 396 777 325 777 q 663 696 581 777 q 745 433 745 615 "},"=":{"x_min":132.25,"x_max":914.921875,"ha":1047,"o":"m 132 669 l 914 669 l 914 510 l 132 510 l 132 669 m 132 360 l 914 360 l 914 200 l 132 200 l 132 360 "},"N":{"x_min":114.625,"x_max":931.203125,"ha":1046,"o":"m 114 1012 l 377 1012 l 708 318 l 708 1012 l 931 1012 l 931 0 l 668 0 l 337 694 l 337 0 l 114 0 l 114 1012 "},"ꙕ":{"x_min":55.609375,"x_max":1110.25,"ha":1215,"o":"m 1110 759 l 1110 0 l 891 0 l 891 305 l 802 305 q 698 77 790 174 q 430 -19 607 -19 q 154 86 253 -19 q 55 379 55 191 q 154 672 55 566 q 430 777 253 777 q 699 681 607 777 q 803 455 790 585 l 891 455 l 891 759 l 1110 759 m 430 604 q 321 546 358 604 q 283 379 283 488 q 321 211 283 269 q 430 153 358 153 q 541 211 503 153 q 579 379 579 269 q 541 546 579 488 q 430 604 503 604 "},"ú":{"x_min":97.671875,"x_max":784.703125,"ha":890,"o":"m 97 295 l 97 759 l 317 759 l 317 683 q 316 528 317 621 q 316 404 316 435 q 320 272 316 312 q 335 213 324 231 q 370 177 348 189 q 419 164 392 164 q 527 222 488 164 q 566 384 566 280 l 566 759 l 784 759 l 784 0 l 566 0 l 566 109 q 461 11 516 43 q 339 -19 406 -19 q 159 61 221 -19 q 97 295 97 141 m 542 1110 l 715 1110 l 490 855 l 370 855 l 542 1110 "},"2":{"x_min":99.015625,"x_max":760.96875,"ha":869,"o":"m 360 191 l 760 191 l 760 0 l 99 0 l 99 191 l 431 518 q 497 605 476 562 q 518 694 518 648 q 475 809 518 765 q 361 852 432 852 q 241 826 306 852 q 101 748 175 800 l 101 971 q 258 1015 180 1000 q 410 1030 335 1030 q 664 950 573 1030 q 754 727 754 870 q 716 573 754 644 q 554 381 678 501 l 360 191 "},"ü":{"x_min":97.671875,"x_max":784.703125,"ha":890,"o":"m 97 295 l 97 759 l 317 759 l 317 683 q 316 528 317 621 q 316 404 316 435 q 320 272 316 312 q 335 213 324 231 q 370 177 348 189 q 419 164 392 164 q 527 222 488 164 q 566 384 566 280 l 566 759 l 784 759 l 784 0 l 566 0 l 566 109 q 461 11 516 43 q 339 -19 406 -19 q 159 61 221 -19 q 97 295 97 141 m 250 1074 l 393 1074 l 393 908 l 250 908 l 250 1074 m 491 1074 l 634 1074 l 634 908 l 491 908 l 491 1074 "},"¯":{"x_min":120.046875,"x_max":504.59375,"ha":625,"o":"m 120 1055 l 504 1055 l 504 927 l 120 927 l 120 1055 "},"Z":{"x_min":56.296875,"x_max":850.484375,"ha":906,"o":"m 70 1012 l 836 1012 l 836 854 l 347 197 l 850 197 l 850 0 l 56 0 l 56 158 l 545 815 l 70 815 l 70 1012 "},"u":{"x_min":97.671875,"x_max":784.703125,"ha":890,"o":"m 97 295 l 97 759 l 317 759 l 317 683 q 316 528 317 621 q 316 404 316 435 q 320 272 316 312 q 335 213 324 231 q 370 177 348 189 q 419 164 392 164 q 527 222 488 164 q 566 384 566 280 l 566 759 l 784 759 l 784 0 l 566 0 l 566 109 q 461 11 516 43 q 339 -19 406 -19 q 159 61 221 -19 q 97 295 97 141 "},"Ó":{"x_min":62.390625,"x_max":999.703125,"ha":1062,"o":"m 531 841 q 364 753 423 841 q 305 505 305 665 q 364 257 305 345 q 531 169 423 169 q 698 257 638 169 q 757 505 757 345 q 698 753 757 665 q 531 841 638 841 m 531 1030 q 875 891 750 1030 q 999 505 999 751 q 875 120 999 259 q 531 -19 750 -19 q 187 120 311 -19 q 62 505 62 259 q 187 891 62 751 q 531 1030 311 1030 m 547 1287 l 720 1287 l 545 1108 l 426 1108 l 547 1287 "},"k":{"x_min":105.125,"x_max":855.234375,"ha":831,"o":"m 105 1055 l 323 1055 l 323 480 l 575 759 l 828 759 l 495 411 l 855 0 l 590 0 l 323 316 l 323 0 l 105 0 l 105 1055 "},"₯":{"x_min":114.625,"x_max":1558.5625,"ha":1740,"o":"m 1141 -309 l 1010 -280 l 1108 207 q 1167 385 1131 318 q 1249 486 1201 448 q 1360 524 1295 524 q 1443 505 1405 524 q 1518 443 1492 482 q 1558 278 1558 383 q 1528 129 1558 195 q 1444 15 1492 49 q 1330 -19 1395 -19 q 1261 -1 1292 -19 q 1214 56 1237 13 l 1141 -309 m 1283 320 q 1257 200 1257 269 q 1271 134 1257 160 q 1315 101 1289 101 q 1397 147 1366 101 q 1431 281 1431 199 q 1416 363 1431 335 q 1361 392 1399 392 q 1283 320 1320 392 m 358 283 q 368 329 364 303 l 474 879 q 455 870 465 875 q 419 838 436 857 q 389 777 405 819 l 259 822 q 312 921 274 870 q 383 987 347 965 q 579 1030 456 1030 q 803 987 705 1030 q 952 873 895 946 q 1029 724 1004 807 q 1054 553 1054 640 q 1037 381 1054 476 q 981 208 1022 293 q 930 122 959 161 q 863 51 900 83 q 775 0 821 16 q 671 -19 717 -19 q 605 -13 633 -19 q 544 8 575 -6 q 495 36 511 25 l 457 61 q 441 37 449 48 q 297 -19 392 -19 q 164 24 212 -19 q 114 134 114 69 q 160 249 114 198 q 279 294 200 294 q 358 283 324 294 m 636 887 l 527 327 q 500 206 513 252 l 524 187 q 598 138 574 150 q 659 122 630 122 q 759 164 717 122 q 834 279 803 208 q 873 415 857 330 q 887 548 887 484 q 870 672 887 609 q 822 777 853 734 q 636 887 749 878 m 318 147 q 278 168 299 168 q 252 158 260 168 q 244 139 244 149 q 257 112 244 122 q 285 104 267 104 q 318 147 307 104 "},"Ù":{"x_min":114.625,"x_max":900.6875,"ha":1015,"o":"m 114 1012 l 349 1012 l 349 405 q 386 226 349 280 q 507 172 423 172 q 628 226 591 172 q 665 405 665 280 l 665 1012 l 900 1012 l 900 405 q 803 85 900 190 q 507 -19 706 -19 q 211 85 308 -19 q 114 405 114 190 l 114 1012 m 460 1287 l 582 1108 l 462 1108 l 288 1287 l 460 1287 "},"€":{"x_min":-24.0625,"x_max":785.734375,"ha":869,"o":"m 785 55 q 664 0 728 18 q 533 -19 601 -19 q 263 68 373 -19 q 108 323 154 157 l -24 323 l 29 455 l 89 455 q 88 475 88 465 q 87 505 87 486 q 88 535 87 524 q 89 556 88 546 l -24 556 l 29 689 l 108 689 q 264 943 155 855 q 533 1030 373 1030 q 664 1011 601 1030 q 785 955 728 992 l 785 746 q 680 825 736 798 q 563 852 624 852 q 431 810 485 852 q 349 689 376 769 l 678 689 l 625 556 l 325 556 q 323 533 323 545 q 323 497 323 521 q 323 477 323 488 q 324 455 323 467 l 586 455 l 532 323 l 349 323 q 433 199 380 240 q 563 158 486 158 q 679 184 624 158 q 785 265 734 211 l 785 55 "},"₦":{"x_min":53.578125,"x_max":992.234375,"ha":1046,"o":"m 636 428 l 636 583 l 577 583 l 623 428 l 636 428 m 53 297 l 53 428 l 186 428 l 186 583 l 53 583 l 53 715 l 186 715 l 186 1012 l 448 1012 l 537 715 l 636 715 l 636 1012 l 859 1012 l 859 715 l 992 715 l 992 583 l 859 583 l 859 428 l 992 428 l 992 297 l 859 297 l 859 0 l 596 0 l 507 297 l 409 297 l 409 0 l 186 0 l 186 297 l 53 297 m 409 583 l 409 428 l 468 428 l 422 583 l 409 583 "},"¢":{"x_min":106.484375,"x_max":708.75,"ha":869,"o":"m 428 581 q 357 502 381 552 q 333 379 333 452 q 357 255 333 305 q 428 176 381 204 l 428 581 m 708 735 l 708 537 q 619 587 663 570 q 536 604 576 604 l 527 604 l 527 154 q 628 172 581 155 q 708 221 674 189 l 708 22 q 613 -8 657 2 q 533 -19 569 -19 l 527 -19 l 527 -212 l 428 -212 l 428 -16 q 187 112 268 10 q 106 389 106 215 q 188 654 106 555 q 428 776 271 752 l 428 971 l 527 971 l 527 776 q 616 764 571 774 q 708 735 661 754 "},"ß":{"x_min":105.125,"x_max":845.0625,"ha":899,"o":"m 105 755 q 187 980 105 906 q 436 1055 269 1055 q 677 979 596 1055 q 759 755 759 903 l 759 707 q 623 674 668 700 q 579 597 579 647 q 594 553 579 572 q 666 498 609 533 l 708 473 q 812 372 779 430 q 845 236 845 315 q 775 44 845 107 q 564 -19 705 -19 q 482 -11 524 -19 q 394 13 440 -2 l 394 179 q 464 151 429 160 q 532 141 499 141 q 603 166 576 141 q 630 229 630 190 q 613 284 630 261 q 536 344 596 307 l 493 370 q 414 450 440 404 q 388 556 388 495 q 431 689 388 635 q 562 776 473 742 q 532 864 561 834 q 447 894 503 894 q 354 857 385 894 q 323 746 323 819 l 323 0 l 105 0 l 105 755 "},"é":{"x_min":53.578125,"x_max":787.421875,"ha":848,"o":"m 787 381 l 787 312 l 276 312 q 331 184 284 227 q 465 141 379 141 q 606 164 534 141 q 754 233 678 187 l 754 46 q 599 -3 677 13 q 444 -19 522 -19 q 156 85 259 -19 q 53 379 53 189 q 154 671 53 564 q 432 777 255 777 q 690 670 594 777 q 787 381 787 562 m 562 462 q 526 574 562 531 q 431 616 490 616 q 328 576 368 616 q 278 462 288 537 l 562 462 m 526 1110 l 699 1110 l 474 855 l 354 855 l 526 1110 "},"s":{"x_min":64.4375,"x_max":685,"ha":744,"o":"m 638 735 l 638 551 q 503 600 569 583 q 380 616 438 616 q 287 599 318 616 q 257 545 257 581 q 280 501 257 516 q 362 478 303 485 l 400 472 q 627 394 569 448 q 685 223 685 339 q 604 41 685 102 q 363 -19 523 -19 q 223 -7 295 -19 q 75 27 151 4 l 75 212 q 209 159 140 177 q 348 141 278 141 q 444 161 412 141 q 477 219 477 181 q 455 268 477 252 q 366 293 432 284 l 327 298 q 123 373 181 318 q 64 540 64 428 q 139 719 64 661 q 367 777 213 777 q 494 767 427 777 q 638 735 560 757 "},"B":{"x_min":114.625,"x_max":864.734375,"ha":952,"o":"m 479 620 q 563 647 535 620 q 592 727 592 674 q 563 807 592 779 q 479 834 535 834 l 349 834 l 349 620 l 479 620 m 487 177 q 594 210 558 177 q 630 311 630 244 q 594 409 630 377 q 487 442 558 442 l 349 442 l 349 177 l 487 177 m 706 541 q 823 451 781 517 q 864 290 864 385 q 775 71 864 143 q 504 0 686 0 l 114 0 l 114 1012 l 467 1012 q 742 948 657 1012 q 827 744 827 885 q 796 618 827 670 q 706 541 765 567 "},"?":{"x_min":86.140625,"x_max":644.3125,"ha":725,"o":"m 432 341 l 212 341 l 212 375 q 232 473 212 430 q 317 583 252 516 l 356 622 q 407 689 391 657 q 423 751 423 720 q 394 825 423 798 q 312 852 364 852 q 205 829 263 852 q 86 762 148 807 l 86 975 q 221 1017 160 1003 q 339 1030 282 1030 q 565 963 487 1030 q 644 766 644 895 q 620 647 644 699 q 539 534 596 594 l 499 495 q 445 428 458 453 q 432 372 432 402 l 432 341 m 212 241 l 432 241 l 432 0 l 212 0 l 212 241 "},"H":{"x_min":114.625,"x_max":931.203125,"ha":1046,"o":"m 114 1012 l 349 1012 l 349 626 l 696 626 l 696 1012 l 931 1012 l 931 0 l 696 0 l 696 429 l 349 429 l 349 0 l 114 0 l 114 1012 "},"î":{"x_min":-16.25,"x_max":443.578125,"ha":428,"o":"m 105 759 l 323 759 l 323 0 l 105 0 l 105 759 m 139 1110 l 287 1110 l 443 855 l 335 855 l 213 1008 l 92 855 l -16 855 l 139 1110 "},"c":{"x_min":53.578125,"x_max":657.203125,"ha":741,"o":"m 657 735 l 657 537 q 568 588 613 571 q 474 604 522 604 q 332 544 383 604 q 281 379 281 485 q 332 213 281 272 q 474 153 383 153 q 572 170 526 153 q 657 221 618 187 l 657 22 q 553 -9 606 1 q 447 -19 500 -19 q 158 85 262 -19 q 53 379 53 191 q 158 672 53 567 q 447 777 262 777 q 553 767 501 777 q 657 735 605 756 "},"¶":{"x_min":78.671875,"x_max":686.359375,"ha":795,"o":"m 368 1012 l 686 1012 l 686 -133 l 570 -133 l 570 912 l 454 912 l 454 -133 l 339 -133 l 339 440 q 146 531 214 457 q 78 726 78 605 q 158 933 78 855 q 368 1012 237 1012 "},"¥":{"x_min":14.921875,"x_max":855.234375,"ha":869,"o":"m 828 282 l 551 282 l 551 0 l 318 0 l 318 282 l 41 282 l 41 413 l 318 413 l 318 458 l 288 516 l 41 516 l 41 647 l 219 647 l 14 1012 l 259 1012 l 435 699 l 611 1012 l 855 1012 l 649 647 l 828 647 l 828 516 l 581 516 l 551 458 l 551 413 l 828 413 l 828 282 "},"(":{"x_min":107.15625,"x_max":471.359375,"ha":571,"o":"m 471 -183 l 290 -183 q 151 135 196 -15 q 107 434 107 286 q 152 735 107 583 q 290 1053 197 887 l 471 1053 q 354 739 393 893 q 314 436 314 585 q 353 132 314 286 q 471 -183 392 -21 "},"U":{"x_min":114.625,"x_max":900.6875,"ha":1015,"o":"m 114 1012 l 349 1012 l 349 405 q 386 226 349 280 q 507 172 423 172 q 628 226 591 172 q 665 405 665 280 l 665 1012 l 900 1012 l 900 405 q 803 85 900 190 q 507 -19 706 -19 q 211 85 308 -19 q 114 405 114 190 l 114 1012 "},"₠":{"x_min":47.46875,"x_max":1114.3125,"ha":1161,"o":"m 628 759 l 1104 759 l 1104 611 l 805 611 l 805 470 l 1086 470 l 1086 322 l 805 322 l 805 147 l 1114 147 l 1114 0 l 628 0 l 628 282 q 527 239 579 253 q 417 225 474 225 q 147 331 246 225 q 47 619 47 437 q 147 907 47 800 q 417 1013 246 1013 q 527 999 474 1013 q 628 956 579 984 l 628 799 q 532 854 579 836 q 432 871 484 871 q 283 804 337 871 q 229 619 229 737 q 283 434 229 501 q 432 367 337 367 q 532 384 484 367 q 628 438 579 401 l 628 759 "},"Ñ":{"x_min":114.625,"x_max":931.203125,"ha":1046,"o":"m 114 1012 l 377 1012 l 708 318 l 708 1012 l 931 1012 l 931 0 l 668 0 l 337 694 l 337 0 l 114 0 l 114 1012 m 502 1142 l 468 1165 q 462 1169 466 1167 q 417 1187 434 1187 q 386 1167 398 1187 q 373 1112 373 1146 l 373 1108 l 289 1108 q 289 1119 289 1112 q 290 1129 290 1125 q 322 1245 290 1201 q 408 1289 355 1289 q 453 1280 431 1289 q 499 1256 476 1272 l 535 1229 q 560 1215 548 1220 q 582 1209 572 1209 q 616 1230 605 1209 q 628 1289 628 1250 l 713 1289 q 713 1278 713 1285 q 712 1268 712 1271 q 680 1152 712 1196 q 594 1108 647 1108 q 549 1116 571 1108 q 502 1142 528 1123 "},"F":{"x_min":114.625,"x_max":748.765625,"ha":854,"o":"m 114 1012 l 748 1012 l 748 815 l 349 815 l 349 626 l 725 626 l 725 429 l 349 429 l 349 0 l 114 0 l 114 1012 "},"­":{"x_min":67.828125,"x_max":451.015625,"ha":519,"o":"m 67 498 l 451 498 l 451 301 l 67 301 l 67 498 "},":":{"x_min":139.71875,"x_max":360.140625,"ha":500,"o":"m 139 759 l 360 759 l 360 497 l 139 497 l 139 759 m 139 262 l 360 262 l 360 0 l 139 0 l 139 262 "},"Ꙍ":{"x_min":70.53125,"x_max":1685.390625,"ha":1757,"o":"m 1358 -19 q 1215 23 1299 -19 q 1061 103 1215 23 q 877 147 965 147 q 694 103 790 147 q 541 23 694 103 q 398 -19 457 -19 q 144 94 229 -19 q 70 365 70 195 q 122 663 70 510 q 246 908 171 813 l 442 908 q 346 681 394 851 q 295 364 295 501 q 398 178 295 178 q 541 210 472 178 q 670 271 607 240 q 877 303 759 303 q 1085 271 996 303 q 1214 210 1150 240 q 1358 178 1284 178 q 1460 367 1460 178 q 1411 680 1460 504 q 1314 908 1363 848 l 1509 908 q 1633 663 1584 813 q 1685 364 1685 509 q 1612 94 1685 194 q 1358 -19 1528 -19 "},"Û":{"x_min":114.625,"x_max":900.6875,"ha":1015,"o":"m 114 1012 l 349 1012 l 349 405 q 386 226 349 280 q 507 172 423 172 q 628 226 591 172 q 665 405 665 280 l 665 1012 l 900 1012 l 900 405 q 803 85 900 190 q 507 -19 706 -19 q 211 85 308 -19 q 114 405 114 190 l 114 1012 m 414 1287 l 602 1287 l 737 1108 l 629 1108 l 508 1218 l 386 1108 l 278 1108 l 414 1287 "},"*":{"x_min":25.09375,"x_max":628.71875,"ha":653,"o":"m 628 825 l 427 708 l 628 590 l 582 494 l 379 619 l 379 385 l 275 385 l 275 619 l 71 494 l 25 590 l 229 708 l 25 825 l 71 921 l 275 797 l 275 1030 l 379 1030 l 379 797 l 582 921 l 628 825 "},"₫":{"x_min":38.296875,"x_max":865.71875,"ha":869,"o":"m 552 648 l 552 838 l 352 838 l 352 978 l 552 978 l 552 1055 l 772 1055 l 772 978 l 865 978 l 865 838 l 772 838 l 772 0 l 552 0 l 552 109 q 452 11 506 42 q 326 -19 398 -19 q 119 91 200 -19 q 38 379 38 203 q 119 666 38 554 q 326 777 200 777 q 452 746 397 777 q 552 648 506 714 m 407 156 q 515 213 478 156 q 552 379 552 270 q 515 544 552 487 q 407 601 478 601 q 301 544 338 601 q 264 379 264 487 q 301 213 264 270 q 407 156 338 156 m 227 -124 l 611 -124 l 611 -252 l 227 -252 l 227 -124 "},"°":{"x_min":108.515625,"x_max":515.453125,"ha":625,"o":"m 312 930 q 238 896 268 930 q 207 813 207 862 q 237 731 207 765 q 312 698 267 698 q 387 732 356 698 q 417 813 417 765 q 386 896 417 862 q 312 930 356 930 m 312 1040 q 389 1023 352 1040 q 456 973 427 1005 q 500 900 485 941 q 515 813 515 859 q 500 727 515 768 q 457 655 485 686 q 390 605 428 623 q 311 588 352 588 q 166 653 225 588 q 108 813 108 718 q 167 974 108 909 q 312 1040 226 1040 "},"V":{"x_min":6.109375,"x_max":961.71875,"ha":967,"o":"m 6 1012 l 242 1012 l 484 265 l 725 1012 l 961 1012 l 623 0 l 343 0 l 6 1012 "},"å":{"x_min":53.578125,"x_max":745.359375,"ha":843,"o":"m 411 341 q 308 316 343 341 q 274 240 274 290 q 301 167 274 193 q 379 141 329 141 q 482 190 440 141 q 524 314 524 240 l 524 341 l 411 341 m 745 433 l 745 0 l 524 0 l 524 112 q 425 11 480 43 q 292 -19 370 -19 q 119 49 185 -19 q 53 227 53 118 q 136 423 53 361 q 396 486 219 486 l 524 486 l 524 505 q 483 589 524 562 q 356 616 442 616 q 225 600 286 616 q 113 554 165 585 l 113 739 q 254 768 183 758 q 396 777 325 777 q 663 696 581 777 q 745 433 745 615 m 345 1040 q 369 977 345 1003 q 425 951 392 951 q 482 977 458 951 q 505 1040 505 1003 q 481 1103 505 1077 q 425 1129 458 1129 q 368 1103 391 1129 q 345 1040 345 1077 m 251 1040 q 302 1177 251 1120 q 425 1233 353 1233 q 548 1177 497 1233 q 599 1040 599 1120 q 548 903 599 960 q 425 847 497 847 q 302 903 353 847 q 251 1040 251 960 "}," ":{"x_min":0,"x_max":0,"ha":435},"0":{"x_min":59.6875,"x_max":809.796875,"ha":869,"o":"m 575 507 q 542 774 575 697 q 435 852 510 852 q 327 774 359 852 q 295 507 295 697 q 327 236 295 315 q 435 158 359 158 q 542 236 510 158 q 575 507 575 315 m 809 505 q 712 116 809 253 q 435 -19 614 -19 q 157 116 255 -19 q 59 505 59 253 q 157 894 59 757 q 435 1030 255 1030 q 712 894 614 1030 q 809 505 809 757 "},"¾":{"x_min":63.9375,"x_max":1196.140625,"ha":1294,"o":"m 971 434 l 825 215 l 971 215 l 971 434 m 960 566 l 1112 566 l 1112 215 l 1196 215 l 1196 109 l 1112 109 l 1112 0 l 971 0 l 971 109 l 732 109 l 732 223 l 960 566 m 447 -19 l 310 -19 l 880 1030 l 1017 1030 l 447 -19 m 370 759 q 457 710 426 747 q 488 617 488 672 q 428 486 488 530 q 245 442 367 442 q 150 450 195 442 q 63 473 105 458 l 63 591 q 143 554 103 567 q 219 541 182 541 q 308 563 276 541 q 340 625 340 585 q 307 689 340 668 q 205 710 274 710 l 160 710 l 160 803 l 211 803 q 298 818 271 803 q 326 869 326 834 q 302 915 326 900 q 230 930 278 930 q 160 921 198 930 q 80 894 122 912 l 80 1007 q 166 1024 120 1018 q 265 1030 212 1030 q 421 992 367 1030 q 475 883 475 954 q 448 804 475 836 q 370 759 420 771 "},"@":{"x_min":82.75,"x_max":1161.796875,"ha":1250,"o":"m 507 365 q 539 233 507 282 q 626 185 571 185 q 713 234 680 185 q 745 365 745 282 q 712 495 745 447 q 625 543 680 543 q 539 495 571 543 q 507 365 507 447 m 757 161 q 698 86 739 113 q 603 59 657 59 q 433 144 498 59 q 367 364 367 228 q 433 584 367 499 q 603 669 499 669 q 698 642 657 669 q 757 567 739 615 l 757 655 l 885 655 l 885 185 q 1004 266 961 198 q 1047 441 1047 335 q 1029 568 1047 509 q 975 677 1011 628 q 831 805 918 760 q 642 849 744 849 q 506 829 571 849 q 387 768 442 808 q 246 596 297 701 q 196 368 196 491 q 229 178 196 267 q 323 22 261 90 q 463 -79 384 -44 q 632 -113 542 -113 q 786 -82 709 -113 q 917 4 863 -50 l 982 -105 q 816 -206 906 -171 q 633 -241 726 -241 q 420 -197 520 -241 q 242 -67 320 -152 q 123 128 164 16 q 82 368 82 240 q 124 603 82 491 q 242 800 165 715 q 421 930 319 884 q 633 976 523 976 q 882 918 770 976 q 1068 751 993 860 q 1138 607 1114 685 q 1161 444 1161 529 q 1062 158 1161 260 q 781 56 962 56 l 757 56 l 757 161 "},"ö":{"x_min":53.578125,"x_max":805.046875,"ha":859,"o":"m 430 604 q 319 546 357 604 q 281 379 281 488 q 319 211 281 269 q 430 153 357 153 q 539 211 501 153 q 577 379 577 269 q 539 546 577 488 q 430 604 501 604 m 430 777 q 706 672 607 777 q 805 379 805 566 q 706 86 805 191 q 430 -19 607 -19 q 153 86 253 -19 q 53 379 53 191 q 153 672 53 566 q 430 777 253 777 m 236 1074 l 379 1074 l 379 908 l 236 908 l 236 1074 m 477 1074 l 620 1074 l 620 908 l 477 908 l 477 1074 "},"i":{"x_min":105.125,"x_max":323.515625,"ha":428,"o":"m 105 759 l 323 759 l 323 0 l 105 0 l 105 759 m 105 1055 l 323 1055 l 323 857 l 105 857 l 105 1055 "},"₳":{"x_min":6.109375,"x_max":864.0625,"ha":869,"o":"m 31 475 l 31 607 l 193 607 l 319 1012 l 550 1012 l 675 607 l 838 607 l 838 475 l 716 475 l 747 374 l 838 374 l 838 242 l 788 242 l 864 0 l 651 0 l 576 242 l 293 242 l 217 0 l 6 0 l 81 242 l 31 242 l 31 374 l 122 374 l 153 475 l 31 475 m 364 475 l 333 374 l 535 374 l 504 475 l 364 475 m 405 607 l 463 607 l 435 701 l 405 607 "},"Õ":{"x_min":62.390625,"x_max":999.703125,"ha":1062,"o":"m 531 841 q 364 753 423 841 q 305 505 305 665 q 364 257 305 345 q 531 169 423 169 q 698 257 638 169 q 757 505 757 345 q 698 753 757 665 q 531 841 638 841 m 531 1030 q 875 891 750 1030 q 999 505 999 751 q 875 120 999 259 q 531 -19 750 -19 q 187 120 311 -19 q 62 505 62 259 q 187 891 62 751 q 531 1030 311 1030 m 532 1142 l 498 1165 q 492 1169 496 1167 q 447 1187 464 1187 q 416 1167 428 1187 q 403 1112 403 1146 l 403 1108 l 319 1108 q 319 1119 319 1112 q 320 1129 320 1125 q 352 1245 320 1201 q 438 1289 385 1289 q 483 1280 461 1289 q 529 1256 506 1272 l 565 1229 q 590 1215 578 1220 q 612 1209 602 1209 q 646 1230 635 1209 q 658 1289 658 1250 l 743 1289 q 743 1278 743 1285 q 742 1268 742 1271 q 710 1152 742 1196 q 624 1108 677 1108 q 579 1116 601 1108 q 532 1142 558 1123 "},"þ":{"x_min":105.125,"x_max":838.96875,"ha":895,"o":"m 323 109 l 323 -288 l 105 -288 l 105 1055 l 323 1055 l 323 648 q 423 746 368 714 q 550 777 478 777 q 757 666 676 777 q 838 379 838 554 q 757 91 838 203 q 550 -19 676 -19 q 423 11 478 -19 q 323 109 368 43 m 468 601 q 361 544 398 601 q 323 379 323 486 q 361 213 323 271 q 468 156 398 156 q 576 213 539 156 q 613 379 613 270 q 576 544 613 487 q 468 601 539 601 "},"]":{"x_min":84.78125,"x_max":463.90625,"ha":571,"o":"m 463 -183 l 84 -183 l 84 -30 l 256 -30 l 256 902 l 84 902 l 84 1055 l 463 1055 l 463 -183 "},"m":{"x_min":103.765625,"x_max":1203.84375,"ha":1302,"o":"m 738 633 q 836 740 779 704 q 962 777 893 777 q 1142 697 1080 777 q 1203 462 1203 616 l 1203 0 l 984 0 l 984 396 q 985 414 984 404 q 985 441 985 423 q 964 558 985 522 q 894 594 942 594 q 798 537 832 594 q 763 373 765 480 l 763 0 l 543 0 l 543 396 q 524 558 543 522 q 454 594 504 594 q 357 537 392 594 q 323 373 323 480 l 323 0 l 103 0 l 103 759 l 323 759 l 323 648 q 415 745 363 712 q 531 777 467 777 q 656 739 601 777 q 738 633 710 701 "},"ꙅ":{"x_min":18.984375,"x_max":638.890625,"ha":744,"o":"m 64 735 q 209 767 143 757 q 336 777 276 777 q 564 719 490 777 q 638 540 638 661 q 580 373 638 428 q 375 298 522 318 l 337 293 q 248 268 271 284 q 226 219 226 252 q 258 161 226 181 q 355 141 290 141 q 494 159 425 141 q 628 212 563 177 l 628 27 q 479 -8 552 4 q 339 -19 407 -19 q 99 41 180 -19 q 18 223 18 102 q 76 394 18 339 q 302 472 134 448 l 341 478 q 423 501 400 485 q 446 545 446 516 q 416 599 446 581 q 323 616 385 616 q 200 600 265 616 q 64 551 134 583 l 64 735 "},"₥":{"x_min":103.765625,"x_max":1203.84375,"ha":1302,"o":"m 497 -128 l 392 -128 l 543 207 l 543 396 q 524 558 543 521 q 454 594 504 594 q 357 537 391 594 q 323 373 323 479 l 323 0 l 103 0 l 103 759 l 323 759 l 323 648 q 416 745 364 713 q 531 777 467 777 q 656 739 601 777 q 737 636 708 704 l 851 888 l 955 888 l 902 770 q 962 777 932 777 q 1142 697 1080 777 q 1203 462 1203 616 l 1203 0 l 984 0 l 984 396 l 985 413 l 985 441 q 963 558 985 521 q 894 594 942 594 q 798 537 832 594 l 788 518 q 763 373 764 462 l 763 0 l 554 0 l 497 -128 "},"8":{"x_min":75.96875,"x_max":792.171875,"ha":869,"o":"m 435 453 q 333 413 368 453 q 298 298 298 373 q 333 184 298 223 q 435 144 368 144 q 535 184 500 144 q 570 298 570 223 q 535 413 570 373 q 435 453 500 453 m 263 539 q 138 624 180 567 q 96 768 96 682 q 182 963 96 896 q 435 1030 268 1030 q 686 964 600 1030 q 772 768 772 897 q 730 624 772 682 q 604 539 687 567 q 745 446 697 510 q 792 284 792 382 q 702 57 792 134 q 435 -19 612 -19 q 166 57 257 -19 q 75 284 75 134 q 123 446 75 382 q 263 539 170 510 m 318 741 q 348 649 318 681 q 435 616 379 616 q 520 649 490 616 q 550 741 550 681 q 520 834 550 802 q 435 866 490 866 q 348 834 379 866 q 318 741 318 801 "},"₵":{"x_min":89.53125,"x_max":786.0625,"ha":869,"o":"m 786 55 q 665 0 728 18 q 595 -15 630 -10 l 595 -204 l 496 -204 l 496 -18 q 263 69 369 -8 q 89 455 89 196 q 263 842 89 704 q 496 928 361 919 l 496 1055 l 595 1055 l 595 925 q 664 910 630 921 q 785 854 727 891 l 785 644 q 680 724 735 697 q 595 749 638 744 l 595 160 q 679 184 638 164 q 786 265 735 211 l 786 55 m 496 166 l 496 742 q 431 709 459 732 q 324 455 324 626 q 433 199 324 290 q 496 166 460 177 "},"R":{"x_min":114.625,"x_max":937.296875,"ha":962,"o":"m 448 563 q 554 594 522 563 q 586 694 586 624 q 554 793 586 763 q 448 823 522 823 l 349 823 l 349 563 l 448 563 m 349 383 l 349 0 l 114 0 l 114 1012 l 473 1012 q 737 945 653 1012 q 821 733 821 878 q 777 568 821 632 q 646 473 734 503 q 732 418 694 461 q 809 287 771 375 l 937 0 l 687 0 l 576 251 q 507 355 542 327 q 416 383 473 383 l 349 383 "},"ꙭ":{"x_min":53.578125,"x_max":1328.640625,"ha":1382,"o":"m 843 511 l 1063 511 l 1063 249 l 843 249 l 843 511 m 319 511 l 539 511 l 539 249 l 319 249 l 319 511 m 430 604 q 319 546 357 604 q 281 379 281 488 q 319 211 281 269 q 430 153 357 153 q 539 211 501 153 q 577 379 577 269 q 539 546 577 488 q 430 604 501 604 m 954 777 q 1229 672 1130 777 q 1328 379 1328 566 q 1229 86 1328 191 q 954 -19 1130 -19 q 691 71 789 -19 q 430 -19 594 -19 q 153 86 253 -19 q 53 379 53 191 q 153 672 53 566 q 430 777 253 777 q 691 686 594 777 q 954 777 789 777 m 954 604 q 843 546 881 604 q 805 379 805 488 q 843 211 805 269 q 954 153 881 153 q 1063 211 1025 153 q 1101 379 1101 269 q 1063 546 1101 488 q 954 604 1025 604 "},"á":{"x_min":53.578125,"x_max":745.359375,"ha":843,"o":"m 411 341 q 308 316 343 341 q 274 240 274 290 q 301 167 274 193 q 379 141 329 141 q 482 190 440 141 q 524 314 524 240 l 524 341 l 411 341 m 745 433 l 745 0 l 524 0 l 524 112 q 425 11 480 43 q 292 -19 370 -19 q 119 49 185 -19 q 53 227 53 118 q 136 423 53 361 q 396 486 219 486 l 524 486 l 524 505 q 483 589 524 562 q 356 616 442 616 q 225 600 286 616 q 113 554 165 585 l 113 739 q 254 768 183 758 q 396 777 325 777 q 663 696 581 777 q 745 433 745 615 m 507 1110 l 680 1110 l 455 855 l 335 855 l 507 1110 "},"×":{"x_min":155.984375,"x_max":891.1875,"ha":1047,"o":"m 891 729 l 626 434 l 891 141 l 788 27 l 523 320 l 259 27 l 155 141 l 421 434 l 155 729 l 259 843 l 523 548 l 788 843 l 891 729 "},"o":{"x_min":53.578125,"x_max":805.046875,"ha":859,"o":"m 430 604 q 319 546 357 604 q 281 379 281 488 q 319 211 281 269 q 430 153 357 153 q 539 211 501 153 q 577 379 577 269 q 539 546 577 488 q 430 604 501 604 m 430 777 q 706 672 607 777 q 805 379 805 566 q 706 86 805 191 q 430 -19 607 -19 q 153 86 253 -19 q 53 379 53 191 q 153 672 53 566 q 430 777 253 777 "},"5":{"x_min":96.3125,"x_max":782.671875,"ha":869,"o":"m 132 1012 l 716 1012 l 716 820 l 320 820 l 320 663 q 373 676 346 672 q 430 680 400 680 q 689 588 596 680 q 782 330 782 495 q 681 73 782 166 q 400 -19 580 -19 q 247 -3 323 -19 q 96 47 171 13 l 96 252 q 237 181 170 205 q 363 158 304 158 q 498 204 448 158 q 547 330 547 250 q 498 456 547 410 q 363 502 448 502 q 255 487 313 502 q 132 442 198 473 l 132 1012 "},"₩":{"x_min":16.28125,"x_max":1360.515625,"ha":1379,"o":"m 108 678 l 91 758 l 16 758 l 16 857 l 70 857 l 37 1012 l 262 1012 l 295 857 l 543 857 l 576 1012 l 803 1012 l 835 857 l 1083 857 l 1116 1012 l 1340 1012 l 1306 857 l 1360 857 l 1360 758 l 1285 758 l 1268 678 l 1360 678 l 1360 579 l 1247 579 l 1125 0 l 853 0 l 729 579 l 648 579 l 524 0 l 253 0 l 130 579 l 16 579 l 16 678 l 108 678 m 894 579 l 959 276 l 1023 579 l 894 579 m 856 758 l 873 678 l 1045 678 l 1062 758 l 856 758 m 355 579 l 419 276 l 484 579 l 355 579 m 686 758 l 668 678 l 708 678 l 691 758 l 686 758 m 316 758 l 333 678 l 505 678 l 522 758 l 316 758 "},"õ":{"x_min":53.578125,"x_max":805.046875,"ha":859,"o":"m 430 604 q 319 546 357 604 q 281 379 281 488 q 319 211 281 269 q 430 153 357 153 q 539 211 501 153 q 577 379 577 269 q 539 546 577 488 q 430 604 501 604 m 430 777 q 706 672 607 777 q 805 379 805 566 q 706 86 805 191 q 430 -19 607 -19 q 153 86 253 -19 q 53 379 53 191 q 153 672 53 566 q 430 777 253 777 m 430 925 l 396 950 q 390 954 394 951 q 345 975 361 975 q 312 954 324 975 q 301 893 301 933 l 301 887 l 216 887 q 247 1030 216 980 q 335 1080 278 1080 q 379 1071 357 1080 q 427 1041 402 1062 l 464 1012 q 489 996 478 1002 q 509 991 500 991 q 543 1013 531 991 q 556 1073 556 1034 l 556 1079 l 640 1079 q 609 936 640 986 q 521 886 577 886 q 478 894 499 886 q 430 925 458 902 "},"₲":{"x_min":62.390625,"x_max":803.015625,"ha":869,"o":"m 659 404 l 583 404 l 583 545 l 803 545 l 803 75 q 648 4 728 27 q 522 -18 586 -14 l 522 -111 l 415 -111 l 415 -14 q 175 122 268 5 q 62 505 62 263 q 177 890 62 750 q 415 1025 269 1002 l 415 1123 l 522 1123 l 522 1030 q 640 1011 583 1027 q 774 955 711 992 l 774 787 q 657 849 710 830 q 522 875 590 874 l 522 136 q 570 141 544 137 q 659 186 621 149 l 659 404 m 415 857 q 314 779 355 834 q 243 505 243 683 q 312 231 243 328 q 415 151 354 174 l 415 857 "},"7":{"x_min":83.421875,"x_max":770.46875,"ha":869,"o":"m 83 1012 l 770 1012 l 770 865 l 415 0 l 185 0 l 522 820 l 83 820 l 83 1012 "},"K":{"x_min":114.625,"x_max":1006.484375,"ha":969,"o":"m 114 1012 l 349 1012 l 349 642 l 688 1012 l 961 1012 l 522 533 l 1006 0 l 712 0 l 349 398 l 349 0 l 114 0 l 114 1012 "},",":{"x_min":66.46875,"x_max":347.25,"ha":475,"o":"m 127 262 l 347 262 l 347 55 l 196 -197 l 66 -197 l 127 55 l 127 262 "},"d":{"x_min":56.296875,"x_max":790.125,"ha":895,"o":"m 570 648 l 570 1055 l 790 1055 l 790 0 l 570 0 l 570 109 q 470 11 524 42 q 344 -19 416 -19 q 137 91 218 -19 q 56 379 56 203 q 137 666 56 554 q 344 777 218 777 q 470 746 415 777 q 570 648 524 714 m 425 156 q 533 213 496 156 q 570 379 570 270 q 533 544 570 487 q 425 601 496 601 q 319 544 356 601 q 282 379 282 487 q 319 213 282 270 q 425 156 356 156 "},"¨":{"x_min":120.046875,"x_max":504.59375,"ha":625,"o":"m 120 1074 l 263 1074 l 263 908 l 120 908 l 120 1074 m 361 1074 l 504 1074 l 504 908 l 361 908 l 361 1074 "},"Ô":{"x_min":62.390625,"x_max":999.703125,"ha":1062,"o":"m 531 841 q 364 753 423 841 q 305 505 305 665 q 364 257 305 345 q 531 169 423 169 q 698 257 638 169 q 757 505 757 345 q 698 753 757 665 q 531 841 638 841 m 531 1030 q 875 891 750 1030 q 999 505 999 751 q 875 120 999 259 q 531 -19 750 -19 q 187 120 311 -19 q 62 505 62 259 q 187 891 62 751 q 531 1030 311 1030 m 422 1287 l 610 1287 l 745 1108 l 637 1108 l 516 1218 l 394 1108 l 286 1108 l 422 1287 "},"E":{"x_min":114.625,"x_max":762.328125,"ha":854,"o":"m 114 1012 l 748 1012 l 748 815 l 349 815 l 349 626 l 725 626 l 725 429 l 349 429 l 349 197 l 762 197 l 762 0 l 114 0 l 114 1012 "},"Y":{"x_min":-12.203125,"x_max":917.640625,"ha":905,"o":"m -12 1012 l 244 1012 l 452 651 l 659 1012 l 917 1012 l 570 426 l 570 0 l 335 0 l 335 426 l -12 1012 "},"\"":{"x_min":119.375,"x_max":532.40625,"ha":651,"o":"m 532 1012 l 532 636 l 387 636 l 387 1012 l 532 1012 m 263 1012 l 263 636 l 119 636 l 119 1012 l 263 1012 "},"ê":{"x_min":53.578125,"x_max":787.421875,"ha":848,"o":"m 787 381 l 787 312 l 276 312 q 331 184 284 227 q 465 141 379 141 q 606 164 534 141 q 754 233 678 187 l 754 46 q 599 -3 677 13 q 444 -19 522 -19 q 156 85 259 -19 q 53 379 53 189 q 154 671 53 564 q 432 777 255 777 q 690 670 594 777 q 787 381 787 562 m 562 462 q 526 574 562 531 q 431 616 490 616 q 328 576 368 616 q 278 462 288 537 l 562 462 m 370 1110 l 518 1110 l 674 855 l 566 855 l 444 1008 l 323 855 l 214 855 l 370 1110 "},"Ï":{"x_min":40.078125,"x_max":424.625,"ha":465,"o":"m 114 1012 l 349 1012 l 349 0 l 114 0 l 114 1012 m 40 1287 l 183 1287 l 183 1121 l 40 1121 l 40 1287 m 280 1287 l 424 1287 l 424 1121 l 280 1121 l 280 1287 "},"Â":{"x_min":6.109375,"x_max":961.71875,"ha":967,"o":"m 668 184 l 300 184 l 242 0 l 6 0 l 343 1012 l 623 1012 l 961 0 l 725 0 l 668 184 m 358 372 l 608 372 l 484 775 l 358 372 m 389 1287 l 577 1287 l 712 1108 l 604 1108 l 483 1218 l 361 1108 l 253 1108 l 389 1287 "},"Í":{"x_min":114.625,"x_max":421.15625,"ha":465,"o":"m 114 1012 l 349 1012 l 349 0 l 114 0 l 114 1012 m 248 1287 l 421 1287 l 246 1108 l 127 1108 l 248 1287 "},"´":{"x_min":222.453125,"x_max":567.671875,"ha":625,"o":"m 394 1110 l 567 1110 l 342 855 l 222 855 l 394 1110 "},"ì":{"x_min":-25.34375,"x_max":323.515625,"ha":428,"o":"m 105 759 l 323 759 l 323 0 l 105 0 l 105 759 m 146 1110 l 319 855 l 199 855 l -25 1110 l 146 1110 "},"±":{"x_min":132.25,"x_max":914.921875,"ha":1047,"o":"m 596 870 l 596 630 l 914 630 l 914 470 l 596 470 l 596 230 l 451 230 l 451 470 l 132 470 l 132 630 l 451 630 l 451 870 l 596 870 m 132 161 l 914 161 l 914 0 l 132 0 l 132 161 "},"Ú":{"x_min":114.625,"x_max":900.6875,"ha":1015,"o":"m 114 1012 l 349 1012 l 349 405 q 386 226 349 280 q 507 172 423 172 q 628 226 591 172 q 665 405 665 280 l 665 1012 l 900 1012 l 900 405 q 803 85 900 190 q 507 -19 706 -19 q 211 85 308 -19 q 114 405 114 190 l 114 1012 m 523 1287 l 696 1287 l 521 1108 l 402 1108 l 523 1287 "},"|":{"x_min":158.703125,"x_max":297.0625,"ha":456,"o":"m 297 1061 l 297 -327 l 158 -327 l 158 1061 l 297 1061 "},"§":{"x_min":8.8125,"x_max":619.890625,"ha":625,"o":"m 539 991 l 539 837 q 431 877 479 864 q 348 890 383 890 q 279 873 302 890 q 256 825 256 857 q 370 726 256 779 q 394 715 387 718 q 571 596 522 655 q 619 453 619 537 q 585 319 619 373 q 479 233 551 265 q 549 167 526 205 q 572 79 572 128 q 498 -75 572 -18 q 295 -132 424 -132 q 187 -122 242 -132 q 70 -92 132 -112 l 70 67 q 196 25 140 40 q 286 10 251 10 q 349 27 326 10 q 373 71 373 44 q 263 169 373 119 q 229 184 241 179 q 57 304 106 243 q 8 453 8 364 q 42 575 8 523 q 145 662 75 628 q 79 734 99 697 q 59 823 59 772 q 129 975 59 921 q 322 1030 199 1030 q 428 1021 373 1030 q 539 991 483 1011 m 265 580 q 202 535 223 561 q 182 476 182 510 q 220 397 182 430 q 368 319 257 364 q 429 361 408 335 q 451 423 451 388 q 408 505 451 469 q 265 580 366 541 "},"Ý":{"x_min":-12.203125,"x_max":917.640625,"ha":905,"o":"m -12 1012 l 244 1012 l 452 651 l 659 1012 l 917 1012 l 570 426 l 570 0 l 335 0 l 335 426 l -12 1012 m 468 1287 l 641 1287 l 466 1108 l 347 1108 l 468 1287 "},"b":{"x_min":105.125,"x_max":838.96875,"ha":895,"o":"m 468 156 q 576 213 539 156 q 613 379 613 270 q 576 544 613 487 q 468 601 539 601 q 361 544 398 601 q 323 379 323 486 q 361 213 323 271 q 468 156 398 156 m 323 648 q 423 746 368 714 q 550 777 478 777 q 757 666 676 777 q 838 379 838 554 q 757 91 838 203 q 550 -19 676 -19 q 423 11 478 -19 q 323 109 368 43 l 323 0 l 105 0 l 105 1055 l 323 1055 l 323 648 "},"q":{"x_min":56.296875,"x_max":790.125,"ha":895,"o":"m 425 601 q 319 544 356 601 q 282 379 282 487 q 319 213 282 270 q 425 156 356 156 q 533 213 496 156 q 570 379 570 270 q 533 544 570 487 q 425 601 496 601 m 570 109 q 470 11 524 42 q 344 -19 416 -19 q 137 91 218 -19 q 56 379 56 203 q 137 665 56 554 q 344 776 218 776 q 470 745 416 776 q 570 647 524 714 l 570 759 l 790 759 l 790 -288 l 570 -288 l 570 109 "},"Ö":{"x_min":62.390625,"x_max":999.703125,"ha":1062,"o":"m 531 841 q 364 753 423 841 q 305 505 305 665 q 364 257 305 345 q 531 169 423 169 q 698 257 638 169 q 757 505 757 345 q 698 753 757 665 q 531 841 638 841 m 531 1030 q 875 891 750 1030 q 999 505 999 751 q 875 120 999 259 q 531 -19 750 -19 q 187 120 311 -19 q 62 505 62 259 q 187 891 62 751 q 531 1030 311 1030 m 339 1287 l 482 1287 l 482 1121 l 339 1121 l 339 1287 m 579 1287 l 723 1287 l 723 1121 l 579 1121 l 579 1287 "},"z":{"x_min":56.296875,"x_max":668.046875,"ha":727,"o":"m 71 759 l 668 759 l 668 590 l 307 173 l 668 173 l 668 0 l 56 0 l 56 169 l 416 585 l 71 585 l 71 759 "},"":{"x_min":53.578125,"x_max":805.046875,"ha":859,"o":"m 430 604 q 319 546 357 604 q 281 379 281 488 q 319 211 281 269 q 430 153 357 153 q 539 211 501 153 q 577 379 577 269 q 539 546 577 488 q 430 604 501 604 m 716 1055 l 716 906 l 354 906 q 276 894 295 906 q 257 858 257 882 q 292 805 257 833 q 430 777 327 777 q 706 672 607 777 q 805 379 805 566 q 706 86 805 191 q 430 -19 607 -19 q 153 86 253 -19 q 53 379 53 191 q 184 700 53 594 q 94 816 110 769 q 78 892 78 864 q 135 1010 78 966 q 315 1055 193 1055 l 716 1055 "},"ꚍ":{"x_min":4.75,"x_max":718.921875,"ha":724,"o":"m 4 759 l 718 759 l 718 609 l 471 609 l 471 313 q 494 190 471 221 q 579 159 517 159 l 594 159 l 594 0 l 510 0 q 318 80 384 0 q 252 313 252 160 l 252 609 l 4 609 l 4 759 "},"Ꚋ":{"x_min":6.109375,"x_max":1103.46875,"ha":1204,"o":"m 6 1012 l 845 1012 l 845 815 l 543 815 l 543 626 l 862 626 q 1041 545 979 626 q 1103 311 1103 466 l 1103 98 q 1010 -184 1103 -90 q 731 -278 918 -278 l 683 -278 l 683 -80 l 720 -80 q 831 -35 793 -80 q 868 98 868 10 l 868 187 q 864 324 868 286 q 851 379 860 361 q 815 416 838 402 q 766 429 794 429 l 543 429 l 543 0 l 308 0 l 308 815 l 6 815 l 6 1012 "},"ã":{"x_min":53.578125,"x_max":745.359375,"ha":843,"o":"m 411 341 q 308 316 343 341 q 274 240 274 290 q 301 167 274 193 q 379 141 329 141 q 482 190 440 141 q 524 314 524 240 l 524 341 l 411 341 m 745 433 l 745 0 l 524 0 l 524 112 q 425 11 480 43 q 292 -19 370 -19 q 119 49 185 -19 q 53 227 53 118 q 136 423 53 361 q 396 486 219 486 l 524 486 l 524 505 q 483 589 524 562 q 356 616 442 616 q 225 600 286 616 q 113 554 165 585 l 113 739 q 254 768 183 758 q 396 777 325 777 q 663 696 581 777 q 745 433 745 615 m 427 925 l 393 950 q 387 954 391 951 q 342 975 358 975 q 309 954 321 975 q 298 893 298 933 l 298 887 l 213 887 q 244 1030 213 980 q 332 1080 275 1080 q 376 1071 354 1080 q 424 1041 399 1062 l 461 1012 q 486 996 475 1002 q 506 991 497 991 q 540 1013 528 991 q 553 1073 553 1034 l 553 1079 l 637 1079 q 606 936 637 986 q 518 886 574 886 q 475 894 496 886 q 427 925 455 902 "},"æ":{"x_min":53.578125,"x_max":1249.96875,"ha":1310,"o":"m 1024 462 q 988 574 1024 531 q 893 616 952 616 q 791 576 830 616 q 742 462 752 537 l 1024 462 m 411 341 q 308 316 343 341 q 274 240 274 290 q 301 167 274 193 q 379 141 329 141 q 482 190 440 141 q 524 314 524 240 l 524 341 l 411 341 m 113 739 q 253 768 185 758 q 381 777 322 777 q 539 751 473 777 q 649 672 605 725 q 758 751 695 724 q 894 777 820 777 q 1153 670 1056 777 q 1249 381 1249 562 l 1249 312 l 738 312 q 794 184 747 227 q 927 141 841 141 q 1069 164 996 141 q 1218 233 1141 187 l 1218 46 q 1062 -3 1140 13 q 907 -19 984 -19 q 717 16 798 -19 q 592 120 636 52 q 462 14 531 48 q 309 -19 394 -19 q 122 47 191 -19 q 53 227 53 113 q 136 423 53 361 q 396 486 219 486 l 524 486 l 524 505 q 483 589 524 562 q 356 616 442 616 q 225 600 286 616 q 113 554 165 585 l 113 739 "},"®":{"x_min":172.953125,"x_max":1077.015625,"ha":1250,"o":"m 625 902 q 487 873 551 902 q 370 784 424 843 q 291 655 318 725 q 265 502 265 585 q 291 350 265 420 q 370 221 318 280 q 487 133 423 162 q 625 104 551 104 q 763 133 699 104 q 878 221 826 162 q 958 350 931 280 q 985 502 985 420 q 958 655 985 585 q 878 784 931 725 q 761 873 825 844 q 625 902 698 902 m 590 702 l 569 702 l 569 562 l 590 562 q 661 580 637 562 q 686 633 686 598 q 662 685 686 668 q 590 702 638 702 m 613 796 q 773 755 720 796 q 826 633 826 715 q 794 537 826 575 q 704 487 762 499 q 750 445 729 472 q 790 379 771 418 l 857 229 l 717 229 l 652 373 q 611 448 629 426 q 576 470 594 470 l 569 470 l 569 229 l 438 229 l 438 796 l 613 796 m 625 1007 q 797 969 717 1007 q 944 858 878 932 q 1044 695 1011 784 q 1077 502 1077 607 q 1044 310 1077 399 q 944 148 1011 222 q 797 37 878 74 q 625 0 717 0 q 452 37 532 0 q 305 148 371 74 q 205 310 238 222 q 172 502 172 399 q 205 695 172 607 q 305 858 238 784 q 452 969 371 932 q 625 1007 532 1007 "},"É":{"x_min":114.625,"x_max":762.328125,"ha":854,"o":"m 114 1012 l 748 1012 l 748 815 l 349 815 l 349 626 l 725 626 l 725 429 l 349 429 l 349 197 l 762 197 l 762 0 l 114 0 l 114 1012 m 453 1287 l 626 1287 l 451 1108 l 332 1108 l 453 1287 "},"~":{"x_min":132.25,"x_max":914.921875,"ha":1047,"o":"m 914 576 l 914 411 q 795 333 850 356 q 682 309 741 309 q 529 349 617 309 q 516 355 521 353 q 503 361 512 357 q 351 402 408 402 q 244 376 297 402 q 132 294 192 350 l 132 459 q 252 537 198 514 q 364 560 306 560 q 517 521 430 560 q 531 515 526 517 q 544 509 535 513 q 696 467 638 467 q 800 493 748 467 q 914 576 851 518 "},"³":{"x_min":54.9375,"x_max":479.5,"ha":547,"o":"m 361 759 q 448 710 417 747 q 479 617 479 672 q 419 486 479 530 q 236 442 358 442 q 141 450 186 442 q 54 473 96 458 l 54 591 q 134 554 94 567 q 210 541 173 541 q 299 563 267 541 q 331 625 331 585 q 298 689 331 668 q 196 710 265 710 l 151 710 l 151 803 l 202 803 q 289 818 262 803 q 317 869 317 834 q 293 915 317 900 q 221 930 269 930 q 151 921 189 930 q 71 894 113 912 l 71 1007 q 157 1024 111 1018 q 256 1030 203 1030 q 412 992 358 1030 q 466 883 466 954 q 439 804 466 836 q 361 759 411 771 "},"₧":{"x_min":114.625,"x_max":1837.984375,"ha":1897,"o":"m 349 823 l 349 540 l 479 540 q 585 577 548 540 q 622 682 622 614 q 585 786 622 750 q 479 823 548 823 l 349 823 m 1220 585 l 1139 585 l 1139 263 q 1158 192 1139 210 q 1228 173 1176 174 l 1228 212 q 1315 173 1270 189 q 1501 141 1431 141 q 1597 161 1565 141 q 1630 219 1630 181 q 1608 268 1630 252 q 1519 293 1585 284 l 1480 298 q 1276 373 1334 318 q 1218 540 1218 428 q 1220 585 1218 564 m 855 585 q 771 437 834 495 q 504 351 678 351 l 349 351 l 349 0 l 114 0 l 114 1012 l 504 1012 q 771 927 678 1012 q 858 759 841 863 l 921 759 l 921 975 l 1139 975 l 1139 759 l 1364 759 q 1520 777 1428 777 q 1647 767 1580 777 q 1791 735 1713 757 l 1791 551 q 1656 600 1722 583 q 1533 616 1591 616 q 1440 599 1471 616 q 1410 545 1410 581 q 1433 501 1410 516 q 1515 478 1456 485 l 1553 472 q 1779 394 1722 448 q 1837 223 1837 339 q 1757 41 1837 102 q 1516 -18 1676 -18 q 1376 -7 1449 -18 q 1335 0 1356 -4 l 1158 0 q 974 60 1028 0 q 921 263 921 120 l 921 585 l 855 585 "},"¡":{"x_min":174.984375,"x_max":394.71875,"ha":570,"o":"m 174 0 l 174 388 l 206 672 l 363 672 l 394 388 l 394 0 l 174 0 m 174 771 l 174 1012 l 394 1012 l 394 771 l 174 771 "},"Ꚍ":{"x_min":6.109375,"x_max":845.75,"ha":853,"o":"m 6 1012 l 845 1012 l 845 815 l 543 815 l 543 376 q 581 242 543 288 q 692 197 619 197 l 729 197 l 729 0 l 680 0 q 401 93 493 0 q 308 376 308 187 l 308 815 l 6 815 l 6 1012 "},"ꙩ":{"x_min":53.578125,"x_max":805.046875,"ha":859,"o":"m 430 604 q 319 546 357 604 q 281 379 281 488 q 319 211 281 269 q 430 153 357 153 q 539 211 501 153 q 577 379 577 269 q 539 546 577 488 q 430 604 501 604 m 430 777 q 706 672 607 777 q 805 379 805 566 q 706 86 805 191 q 430 -19 607 -19 q 153 86 253 -19 q 53 379 53 191 q 153 672 53 566 q 430 777 253 777 m 319 511 l 539 511 l 539 249 l 319 249 l 319 511 "},"[":{"x_min":107.15625,"x_max":486.28125,"ha":571,"o":"m 107 1055 l 486 1055 l 486 902 l 314 902 l 314 -30 l 486 -30 l 486 -183 l 107 -183 l 107 1055 "},"L":{"x_min":114.625,"x_max":762.328125,"ha":796,"o":"m 114 1012 l 349 1012 l 349 197 l 762 197 l 762 0 l 114 0 l 114 1012 "}," ":{"x_min":0,"x_max":0,"ha":435},"ꙫ":{"x_min":53.578125,"x_max":1030.90625,"ha":1084,"o":"m 353 484 l 512 484 l 512 276 l 353 276 l 353 484 m 573 484 l 731 484 l 731 276 l 573 276 l 573 484 m 543 604 q 348 546 415 604 q 281 379 281 488 q 348 211 281 269 q 543 153 415 153 q 736 211 669 153 q 803 379 803 269 q 736 546 803 488 q 543 604 669 604 m 543 777 q 901 672 772 777 q 1030 379 1030 566 q 901 86 1030 191 q 543 -19 772 -19 q 183 86 313 -19 q 53 379 53 191 q 183 672 53 566 q 543 777 313 777 "},"%":{"x_min":40.015625,"x_max":1212.65625,"ha":1252,"o":"m 968 417 q 901 376 925 417 q 877 257 877 334 q 901 137 877 179 q 968 95 925 95 q 1035 137 1012 95 q 1059 257 1059 179 q 1035 376 1059 334 q 968 417 1011 417 m 968 531 q 1147 458 1082 531 q 1212 257 1212 385 q 1147 54 1212 128 q 968 -19 1082 -19 q 789 54 855 -19 q 723 257 723 128 q 789 458 723 384 q 968 531 855 531 m 408 -19 l 274 -19 l 843 1030 l 979 1030 l 408 -19 m 283 1030 q 462 957 397 1030 q 527 755 527 883 q 462 553 527 627 q 283 479 397 479 q 105 553 170 479 q 40 755 40 627 q 105 957 40 883 q 283 1030 170 1030 m 283 916 q 216 874 240 916 q 192 755 192 832 q 216 635 192 677 q 283 592 240 592 q 351 635 327 592 q 375 755 375 677 q 350 874 375 832 q 283 916 326 916 "},"P":{"x_min":114.625,"x_max":864.734375,"ha":916,"o":"m 114 1012 l 504 1012 q 771 926 678 1012 q 864 682 864 841 q 771 437 864 522 q 504 351 678 351 l 349 351 l 349 0 l 114 0 l 114 1012 m 349 823 l 349 540 l 479 540 q 585 577 548 540 q 622 682 622 614 q 585 786 622 750 q 479 823 548 823 l 349 823 "},"À":{"x_min":6.109375,"x_max":961.71875,"ha":967,"o":"m 668 184 l 300 184 l 242 0 l 6 0 l 343 1012 l 623 1012 l 961 0 l 725 0 l 668 184 m 358 372 l 608 372 l 484 775 l 358 372 m 436 1287 l 558 1108 l 438 1108 l 264 1287 l 436 1287 "},"_":{"x_min":0,"x_max":625.328125,"ha":625,"o":"m 625 -198 l 625 -327 l 0 -327 l 0 -198 l 625 -198 "},"ñ":{"x_min":105.125,"x_max":792.171875,"ha":890,"o":"m 792 462 l 792 0 l 572 0 l 572 75 l 572 354 q 568 489 572 452 q 554 544 564 526 q 519 581 541 568 q 470 594 497 594 q 362 536 401 594 q 323 373 323 477 l 323 0 l 105 0 l 105 759 l 323 759 l 323 648 q 428 746 373 714 q 551 777 484 777 q 730 697 669 777 q 792 462 792 616 m 462 925 l 428 950 q 422 954 426 951 q 377 975 393 975 q 344 954 356 975 q 333 893 333 933 l 333 887 l 248 887 q 279 1030 248 980 q 367 1080 310 1080 q 411 1071 389 1080 q 459 1041 434 1062 l 496 1012 q 521 996 510 1002 q 541 991 532 991 q 575 1013 563 991 q 588 1073 588 1034 l 588 1079 l 672 1079 q 641 936 672 986 q 553 886 609 886 q 510 894 531 886 q 462 925 490 902 "},"+":{"x_min":132.25,"x_max":914.921875,"ha":1047,"o":"m 596 870 l 596 515 l 914 515 l 914 355 l 596 355 l 596 0 l 451 0 l 451 355 l 132 355 l 132 515 l 451 515 l 451 870 l 596 870 "},"½":{"x_min":61.28125,"x_max":1233.46875,"ha":1294,"o":"m 447 -19 l 310 -19 l 880 1030 l 1017 1030 l 447 -19 m 1007 114 l 1233 114 l 1233 0 l 822 0 l 822 103 l 1013 284 q 1066 347 1051 320 q 1082 401 1082 374 q 1060 456 1082 435 q 1002 477 1038 477 q 920 462 964 477 q 826 415 877 447 l 826 541 q 928 568 879 559 q 1024 577 978 577 q 1175 534 1120 577 q 1230 415 1230 490 q 1209 325 1230 366 q 1125 225 1187 284 l 1007 114 m 72 559 l 198 559 l 198 912 l 61 877 l 61 986 l 201 1019 l 338 1019 l 338 559 l 463 559 l 463 453 l 72 453 l 72 559 "},"Ꙧ":{"x_min":114.625,"x_max":1540.921875,"ha":1575,"o":"m 114 1012 l 413 1012 l 621 470 l 830 1012 l 1540 1012 l 1540 815 l 1128 815 l 1128 0 l 906 0 l 906 740 l 696 194 l 547 194 l 337 740 l 337 0 l 114 0 l 114 1012 "},"Æ":{"x_min":0,"x_max":1265.5625,"ha":1356,"o":"m 543 838 l 387 425 l 617 425 l 617 838 l 543 838 m 381 1012 l 1251 1012 l 1251 815 l 852 815 l 852 626 l 1227 626 l 1227 429 l 852 429 l 852 197 l 1265 197 l 1265 0 l 617 0 l 617 237 l 316 237 l 226 0 l 0 0 l 381 1012 "},"ꙍ":{"x_min":58.328125,"x_max":1407.3125,"ha":1466,"o":"m 1292 759 q 1376 547 1345 672 q 1407 318 1407 427 q 1345 78 1407 164 q 1142 -18 1277 -18 q 1022 32 1093 -18 q 889 126 955 79 q 733 177 807 177 q 576 126 659 177 l 444 32 q 323 -18 372 -18 q 120 78 188 -18 q 58 318 58 164 q 88 547 58 427 q 173 759 120 672 l 360 759 q 302 558 327 691 q 278 347 278 433 q 366 174 278 174 q 486 224 401 174 q 623 288 581 280 q 733 300 680 300 q 842 288 786 300 q 980 224 885 279 q 1099 174 1066 174 q 1186 347 1186 174 q 1163 558 1186 433 q 1105 759 1138 691 l 1292 759 "},"₣":{"x_min":93.59375,"x_max":828.109375,"ha":869,"o":"m 193 256 l 193 1012 l 828 1012 l 828 815 l 429 815 l 429 626 l 804 626 l 804 429 l 429 429 l 429 256 l 535 256 l 535 196 l 429 196 l 429 0 l 193 0 l 193 196 l 93 196 l 93 256 l 193 256 "},"Ë":{"x_min":114.625,"x_max":762.328125,"ha":854,"o":"m 114 1012 l 748 1012 l 748 815 l 349 815 l 349 626 l 725 626 l 725 429 l 349 429 l 349 197 l 762 197 l 762 0 l 114 0 l 114 1012 m 230 1287 l 373 1287 l 373 1121 l 230 1121 l 230 1287 m 470 1287 l 614 1287 l 614 1121 l 470 1121 l 470 1287 "},"'":{"x_min":119.375,"x_max":263.828125,"ha":383,"o":"m 263 1012 l 263 636 l 119 636 l 119 1012 l 263 1012 "},"ª":{"x_min":96.3125,"x_max":611.078125,"ha":705,"o":"m 107 388 l 603 388 l 603 252 l 107 252 l 107 388 m 392 733 q 279 715 311 733 q 247 655 247 697 q 267 601 247 621 q 323 581 288 581 q 412 620 377 581 q 447 718 447 659 l 447 733 l 392 733 m 611 790 l 611 486 l 461 486 l 461 572 q 385 496 427 520 q 284 472 342 472 q 146 517 196 472 q 96 641 96 562 q 160 781 96 737 q 362 826 224 826 l 446 826 l 446 840 q 419 898 446 878 q 339 918 392 918 q 236 906 286 918 q 137 870 185 894 l 137 992 q 244 1021 193 1011 q 342 1030 296 1030 q 544 971 478 1030 q 611 790 611 912 "},"Ꚕ":{"x_min":100.375,"x_max":895.25,"ha":1010,"o":"m 335 699 l 335 626 l 654 626 q 832 547 770 626 q 895 311 895 467 l 895 0 l 660 0 l 660 187 q 644 375 660 347 q 558 429 615 429 l 335 429 l 335 0 l 100 0 l 100 699 q 167 931 100 850 q 358 1012 233 1012 l 534 1012 l 534 853 l 444 853 q 358 822 381 853 q 335 699 335 790 "},"₭":{"x_min":36.625,"x_max":869.484375,"ha":869,"o":"m 103 585 l 103 1012 l 305 1012 l 305 642 l 596 1012 l 830 1012 l 495 585 l 727 585 l 727 482 l 492 482 l 869 0 l 616 0 l 305 398 l 305 0 l 103 0 l 103 482 l 36 482 l 36 585 l 103 585 "},"ð":{"x_min":53.578125,"x_max":805.046875,"ha":859,"o":"m 561 503 q 494 531 527 522 q 430 540 461 540 q 320 495 358 540 q 281 368 281 450 q 321 210 281 267 q 430 153 360 153 q 539 211 501 153 q 577 379 577 269 q 573 440 577 409 q 561 503 569 472 m 668 746 q 772 566 740 653 q 805 379 805 479 q 706 86 805 191 q 430 -19 607 -19 q 153 86 253 -19 q 53 379 53 191 q 145 625 53 535 q 398 715 237 715 q 450 711 426 715 q 496 697 474 706 l 380 845 l 152 765 l 130 852 l 317 918 l 202 1055 l 417 1055 l 485 976 l 714 1053 l 735 966 l 543 901 l 668 746 "},"T":{"x_min":6.109375,"x_max":845.75,"ha":853,"o":"m 6 1012 l 845 1012 l 845 815 l 543 815 l 543 0 l 308 0 l 308 815 l 6 815 l 6 1012 "},"ꙧ":{"x_min":105.125,"x_max":1216.734375,"ha":1246,"o":"m 105 759 l 356 759 l 510 379 l 663 759 l 1216 759 l 1216 609 l 916 609 l 916 0 l 916 0 l 698 0 l 698 430 l 583 145 l 439 145 l 323 430 l 323 0 l 105 0 l 105 759 "},"Þ":{"x_min":114.625,"x_max":864.734375,"ha":922,"o":"m 349 174 l 349 0 l 114 0 l 114 1012 l 349 1012 l 349 836 l 504 836 q 771 750 678 836 q 864 505 864 664 q 771 260 864 346 q 504 174 678 174 l 349 174 m 349 648 l 349 364 l 479 364 q 585 401 548 364 q 622 505 622 438 q 585 611 622 573 q 479 648 548 648 l 349 648 "},"₮":{"x_min":6.109375,"x_max":845.75,"ha":853,"o":"m 543 387 l 543 0 l 308 0 l 308 237 l 247 198 l 221 250 l 308 306 l 308 420 l 247 381 l 221 433 l 308 489 l 308 815 l 6 815 l 6 1012 l 845 1012 l 845 815 l 543 815 l 543 640 l 604 678 l 631 626 l 543 571 l 543 457 l 604 495 l 631 443 l 543 387 "},"j":{"x_min":-41.703125,"x_max":323.1875,"ha":428,"o":"m 104 759 l 323 759 l 323 13 q 257 -219 323 -139 q 66 -299 191 -299 l -41 -299 l -41 -140 l -3 -140 q 81 -109 58 -140 q 104 13 104 -78 l 104 759 m 104 1055 l 323 1055 l 323 857 l 104 857 l 104 1055 "},"1":{"x_min":141.078125,"x_max":784.03125,"ha":869,"o":"m 146 180 l 354 180 l 354 834 l 141 786 l 141 963 l 352 1012 l 576 1012 l 576 180 l 784 180 l 784 0 l 146 0 l 146 180 "},"₡":{"x_min":62.390625,"x_max":792.84375,"ha":869,"o":"m 406 -6 q 329 17 366 2 l 309 -60 l 210 -60 l 244 67 q 187 122 214 91 q 62 505 62 263 q 187 889 62 748 q 499 1030 303 1022 l 512 1080 l 611 1080 l 596 1026 q 663 1011 630 1021 q 675 1008 668 1009 l 694 1080 l 792 1080 l 763 970 q 790 955 777 963 l 790 746 q 717 795 753 775 l 552 169 q 668 192 613 170 q 790 265 729 215 l 790 55 q 663 0 729 18 q 526 -19 597 -19 q 501 -18 514 -19 l 491 -61 l 393 -61 l 406 -6 m 444 822 q 357 752 394 799 q 290 505 290 662 q 316 337 290 408 l 444 822 m 385 227 q 457 183 417 198 l 628 831 q 548 841 589 841 l 385 227 "},"ä":{"x_min":53.578125,"x_max":745.359375,"ha":843,"o":"m 411 341 q 308 316 343 341 q 274 240 274 290 q 301 167 274 193 q 379 141 329 141 q 482 190 440 141 q 524 314 524 240 l 524 341 l 411 341 m 745 433 l 745 0 l 524 0 l 524 112 q 425 11 480 43 q 292 -19 370 -19 q 119 49 185 -19 q 53 227 53 118 q 136 423 53 361 q 396 486 219 486 l 524 486 l 524 505 q 483 589 524 562 q 356 616 442 616 q 225 600 286 616 q 113 554 165 585 l 113 739 q 254 768 183 758 q 396 777 325 777 q 663 696 581 777 q 745 433 745 615 m 233 1074 l 376 1074 l 376 908 l 233 908 l 233 1074 m 474 1074 l 617 1074 l 617 908 l 474 908 l 474 1074 "},"<":{"x_min":132.25,"x_max":914.921875,"ha":1047,"o":"m 914 659 l 326 434 l 914 210 l 914 41 l 132 355 l 132 515 l 914 829 l 914 659 "},"£":{"x_min":75.96875,"x_max":766.390625,"ha":869,"o":"m 758 994 l 758 800 q 670 839 716 826 q 578 852 625 852 q 472 810 506 852 q 437 678 437 767 l 437 563 l 665 563 l 665 401 l 437 401 l 437 180 l 766 180 l 766 0 l 75 0 l 75 180 l 215 180 l 215 401 l 96 401 l 96 563 l 215 563 l 215 678 q 292 946 215 862 q 537 1030 369 1030 q 649 1021 594 1030 q 758 994 704 1012 "},"¹":{"x_min":75.28125,"x_max":477.46875,"ha":547,"o":"m 86 559 l 212 559 l 212 912 l 75 877 l 75 986 l 215 1019 l 352 1019 l 352 559 l 477 559 l 477 453 l 86 453 l 86 559 "},"t":{"x_min":16.28125,"x_max":569.03125,"ha":598,"o":"m 343 975 l 343 759 l 569 759 l 569 585 l 343 585 l 343 263 q 362 192 343 210 q 437 173 381 173 l 550 173 l 550 0 l 362 0 q 179 60 233 0 q 124 263 124 120 l 124 585 l 16 585 l 16 759 l 124 759 l 124 975 l 343 975 "},"¬":{"x_min":132.25,"x_max":914.921875,"ha":1047,"o":"m 132 616 l 914 616 l 914 194 l 771 194 l 771 455 l 132 455 l 132 616 "},"Ꙗ":{"x_min":114.625,"x_max":1359.84375,"ha":1366,"o":"m 757 372 l 1007 372 l 882 775 l 757 372 m 1066 184 l 698 184 l 640 0 l 404 0 l 540 406 l 349 406 l 349 0 l 114 0 l 114 1012 l 349 1012 l 349 604 l 606 604 l 741 1012 l 1022 1012 l 1359 0 l 1123 0 l 1066 184 "},"ù":{"x_min":97.671875,"x_max":784.703125,"ha":890,"o":"m 97 295 l 97 759 l 317 759 l 317 683 q 316 528 317 621 q 316 404 316 435 q 320 272 316 312 q 335 213 324 231 q 370 177 348 189 q 419 164 392 164 q 527 222 488 164 q 566 384 566 280 l 566 759 l 784 759 l 784 0 l 566 0 l 566 109 q 461 11 516 43 q 339 -19 406 -19 q 159 61 221 -19 q 97 295 97 141 m 377 1110 l 550 855 l 430 855 l 205 1110 l 377 1110 "},"W":{"x_min":37.296875,"x_max":1340.171875,"ha":1379,"o":"m 37 1012 l 262 1012 l 419 276 l 576 1012 l 803 1012 l 959 276 l 1116 1012 l 1340 1012 l 1125 0 l 853 0 l 688 769 l 524 0 l 253 0 l 37 1012 "},"ꚕ":{"x_min":105.125,"x_max":792.171875,"ha":890,"o":"m 792 462 l 792 0 l 572 0 l 572 75 l 572 352 q 569 489 572 452 q 554 544 564 526 q 520 581 541 568 q 470 594 497 594 q 362 535 401 594 q 323 373 323 477 l 323 0 l 105 0 l 105 741 q 172 975 105 893 q 363 1055 238 1055 l 534 1055 l 534 895 l 433 895 q 347 864 370 895 q 324 741 324 833 l 324 649 q 428 746 373 715 q 551 777 484 777 q 731 697 669 777 q 792 462 792 616 "},"ï":{"x_min":21.046875,"x_max":405.59375,"ha":428,"o":"m 105 759 l 323 759 l 323 0 l 105 0 l 105 759 m 21 1074 l 164 1074 l 164 908 l 21 908 l 21 1074 m 262 1074 l 405 1074 l 405 908 l 262 908 l 262 1074 "},">":{"x_min":132.25,"x_max":914.921875,"ha":1047,"o":"m 132 659 l 132 829 l 914 515 l 914 355 l 132 41 l 132 210 l 721 434 l 132 659 "},"v":{"x_min":18.984375,"x_max":796.234375,"ha":815,"o":"m 18 759 l 237 759 l 407 234 l 577 759 l 796 759 l 527 0 l 287 0 l 18 759 "},"û":{"x_min":97.671875,"x_max":784.703125,"ha":890,"o":"m 97 295 l 97 759 l 317 759 l 317 683 q 316 528 317 621 q 316 404 316 435 q 320 272 316 312 q 335 213 324 231 q 370 177 348 189 q 419 164 392 164 q 527 222 488 164 q 566 384 566 280 l 566 759 l 784 759 l 784 0 l 566 0 l 566 109 q 461 11 516 43 q 339 -19 406 -19 q 159 61 221 -19 q 97 295 97 141 m 368 1110 l 516 1110 l 672 855 l 564 855 l 442 1008 l 321 855 l 212 855 l 368 1110 "},"Ò":{"x_min":62.390625,"x_max":999.703125,"ha":1062,"o":"m 531 841 q 364 753 423 841 q 305 505 305 665 q 364 257 305 345 q 531 169 423 169 q 698 257 638 169 q 757 505 757 345 q 698 753 757 665 q 531 841 638 841 m 531 1030 q 875 891 750 1030 q 999 505 999 751 q 875 120 999 259 q 531 -19 750 -19 q 187 120 311 -19 q 62 505 62 259 q 187 891 62 751 q 531 1030 311 1030 m 484 1287 l 606 1108 l 486 1108 l 312 1287 l 484 1287 "},"Ꙣ":{"x_min":75.28125,"x_max":1321.859375,"ha":1356,"o":"m 242 821 l 242 1012 l 1321 1012 l 1321 815 l 909 815 l 909 197 l 1038 197 l 1038 -217 l 860 -217 l 860 0 l 252 0 l 252 -217 l 75 -217 l 75 197 l 143 197 q 224 313 206 244 q 242 821 242 381 m 674 815 l 477 815 l 477 753 q 420 197 477 319 l 674 197 l 674 815 "},"Ꙑ":{"x_min":61.046875,"x_max":1427.96875,"ha":1542,"o":"m 735 177 q 842 209 808 177 q 876 304 876 241 q 843 397 876 366 q 735 429 809 429 l 596 429 l 596 177 l 735 177 m 362 815 l 61 815 l 61 1012 l 596 1012 l 596 626 l 752 626 q 1018 551 925 626 q 1112 312 1112 475 q 1018 75 1112 151 q 752 0 925 0 l 362 0 l 362 815 m 1192 1012 l 1427 1012 l 1427 0 l 1192 0 l 1192 1012 "},"&":{"x_min":75.28125,"x_max":1037.6875,"ha":1090,"o":"m 487 672 l 737 366 q 786 473 769 414 q 806 607 803 532 l 996 607 q 952 387 986 483 q 858 218 918 290 l 1037 0 l 778 0 l 718 73 q 584 3 655 26 q 434 -19 513 -19 q 174 74 273 -19 q 75 316 75 168 q 118 492 75 415 q 261 640 162 568 q 223 712 235 676 q 210 787 210 748 q 288 964 210 897 q 495 1030 366 1030 q 610 1021 550 1030 q 735 991 670 1011 l 735 803 q 627 851 678 835 q 527 866 576 866 q 454 846 480 866 q 428 790 428 826 q 443 737 428 767 q 487 672 458 708 m 366 503 q 306 431 326 472 q 286 343 286 391 q 338 210 286 265 q 462 155 389 155 q 538 169 503 155 q 604 210 574 183 l 366 503 "},"Ð":{"x_min":20.34375,"x_max":984.09375,"ha":1047,"o":"m 361 815 l 361 597 l 504 597 l 504 421 l 361 421 l 361 197 l 444 197 q 665 276 588 197 q 741 507 741 356 q 665 736 741 657 q 444 815 589 815 l 361 815 m 126 1012 l 373 1012 q 682 979 581 1012 q 857 868 784 946 q 952 710 921 799 q 984 507 984 620 q 952 302 984 392 q 857 144 921 212 q 681 32 784 65 q 373 0 578 0 l 126 0 l 126 421 l 20 421 l 20 597 l 126 597 l 126 1012 "},"I":{"x_min":114.625,"x_max":349.96875,"ha":465,"o":"m 114 1012 l 349 1012 l 349 0 l 114 0 l 114 1012 "},"G":{"x_min":62.390625,"x_max":933.90625,"ha":1025,"o":"m 933 75 q 751 4 845 27 q 556 -19 656 -19 q 195 121 328 -19 q 62 505 62 263 q 197 890 62 750 q 569 1030 333 1030 q 743 1011 659 1030 q 900 955 826 992 l 900 746 q 748 817 824 794 q 597 841 673 841 q 381 754 457 841 q 305 505 305 667 q 378 257 305 344 q 586 169 451 169 q 654 174 623 169 q 710 190 686 179 l 710 387 l 567 387 l 567 562 l 933 562 l 933 75 "},"`":{"x_min":57.65625,"x_max":402.1875,"ha":625,"o":"m 229 1110 l 402 855 l 282 855 l 57 1110 l 229 1110 "},"·":{"x_min":127.5,"x_max":347.25,"ha":475,"o":"m 127 613 l 347 613 l 347 351 l 127 351 l 127 613 "},"r":{"x_min":105.125,"x_max":613.109375,"ha":617,"o":"m 613 552 q 555 574 583 567 q 498 581 527 581 q 368 521 414 581 q 323 349 323 461 l 323 0 l 105 0 l 105 759 l 323 759 l 323 634 q 420 743 365 709 q 551 777 474 777 q 575 776 562 777 q 612 772 588 775 l 613 552 "},"₤":{"x_min":75.96875,"x_max":766.390625,"ha":869,"o":"m 215 693 q 292 946 217 866 q 537 1030 369 1030 q 649 1021 594 1030 q 758 994 704 1012 l 758 800 q 670 839 716 826 q 578 852 625 852 q 472 810 506 852 q 437 693 440 771 l 665 693 l 665 562 l 437 562 l 437 455 l 665 455 l 665 324 l 437 324 l 437 180 l 766 180 l 766 0 l 75 0 l 75 180 l 215 180 l 215 324 l 96 324 l 96 455 l 215 455 l 215 562 l 96 562 l 96 693 l 215 693 "},"¿":{"x_min":86.140625,"x_max":644.3125,"ha":725,"o":"m 297 669 l 517 669 l 517 636 q 497 538 517 581 q 411 427 478 495 l 372 388 q 322 322 338 354 q 306 259 306 291 q 335 185 306 212 q 417 158 364 158 q 524 181 466 158 q 644 248 582 204 l 644 35 q 509 -6 571 7 q 391 -19 447 -19 q 164 47 242 -19 q 86 244 86 115 q 109 363 86 311 q 191 476 133 416 l 229 515 q 284 582 271 556 q 297 638 297 608 l 297 669 m 517 771 l 297 771 l 297 1012 l 517 1012 l 517 771 "},"ý":{"x_min":14.921875,"x_max":792.171875,"ha":815,"o":"m 14 759 l 233 759 l 417 244 l 573 759 l 792 759 l 504 -71 q 403 -249 461 -198 q 251 -299 345 -299 l 124 -299 l 124 -140 l 193 -140 q 274 -120 248 -140 q 314 -50 299 -101 l 320 -29 l 14 759 m 489 1110 l 662 1110 l 437 855 l 317 855 l 489 1110 "},"x":{"x_min":18.984375,"x_max":787.421875,"ha":806,"o":"m 278 388 l 31 759 l 262 759 l 402 534 l 543 759 l 775 759 l 528 389 l 787 0 l 556 0 l 402 240 l 250 0 l 18 0 l 278 388 "},"è":{"x_min":53.578125,"x_max":787.421875,"ha":848,"o":"m 787 381 l 787 312 l 276 312 q 331 184 284 227 q 465 141 379 141 q 606 164 534 141 q 754 233 678 187 l 754 46 q 599 -3 677 13 q 444 -19 522 -19 q 156 85 259 -19 q 53 379 53 189 q 154 671 53 564 q 432 777 255 777 q 690 670 594 777 q 787 381 787 562 m 562 462 q 526 574 562 531 q 431 616 490 616 q 328 576 368 616 q 278 462 288 537 l 562 462 m 361 1110 l 534 855 l 414 855 l 189 1110 l 361 1110 "},"º":{"x_min":71.21875,"x_max":633.453125,"ha":705,"o":"m 352 1030 q 558 955 482 1030 q 633 751 633 880 q 558 548 633 622 q 352 473 483 473 q 146 548 222 473 q 71 751 71 622 q 146 955 71 880 q 352 1030 222 1030 m 101 388 l 603 388 l 603 252 l 101 252 l 101 388 m 352 915 q 274 872 301 915 q 246 751 246 830 q 274 630 246 672 q 352 588 301 588 q 431 630 403 588 q 459 751 459 672 q 431 872 459 830 q 352 915 403 915 "},"Ø":{"x_min":27.125,"x_max":1028.859375,"ha":1062,"o":"m 368 251 q 440 189 400 209 q 531 169 480 169 q 698 257 638 169 q 757 505 757 345 q 752 591 757 551 q 738 663 748 630 l 368 251 m 691 763 q 620 822 660 803 q 531 841 581 841 q 364 753 423 841 q 305 505 305 665 q 309 423 305 461 q 322 354 314 385 l 691 763 m 152 165 q 84 318 107 233 q 62 505 62 402 q 187 891 62 751 q 531 1030 311 1030 q 700 1005 625 1030 q 838 927 776 980 l 960 1062 l 1028 984 l 906 849 q 976 696 953 782 q 999 505 999 609 q 875 120 999 259 q 531 -19 750 -19 q 359 7 437 -19 q 219 87 282 33 l 96 -50 l 27 26 l 152 165 "},"÷":{"x_min":132.25,"x_max":914.921875,"ha":1047,"o":"m 430 267 l 617 267 l 617 58 l 430 58 l 430 267 m 430 812 l 617 812 l 617 602 l 430 602 l 430 812 m 132 515 l 914 515 l 914 355 l 132 355 l 132 515 "},"h":{"x_min":105.125,"x_max":792.171875,"ha":890,"o":"m 792 462 l 792 0 l 572 0 l 572 75 l 572 352 q 568 489 572 452 q 554 544 564 526 q 519 581 541 568 q 470 594 497 594 q 362 536 401 594 q 323 373 323 477 l 323 0 l 105 0 l 105 1055 l 323 1055 l 323 648 q 428 746 373 714 q 551 777 484 777 q 730 697 669 777 q 792 462 792 616 "},"Ꙇ":{"x_min":114.625,"x_max":534.4375,"ha":544,"o":"m 114 1012 l 349 1012 l 349 376 q 387 242 349 288 q 497 197 424 197 l 534 197 l 534 0 l 486 0 q 207 93 299 0 q 114 376 114 187 l 114 1012 "},".":{"x_min":127.5,"x_max":347.25,"ha":475,"o":"m 127 262 l 347 262 l 347 0 l 127 0 l 127 262 "},"₱":{"x_min":42.734375,"x_max":869.484375,"ha":869,"o":"m 550 585 l 326 585 l 326 540 l 446 540 q 543 577 509 540 q 550 585 546 581 m 326 709 l 326 655 l 576 655 q 577 682 577 668 q 576 709 577 696 l 326 709 m 109 655 l 109 709 l 42 709 l 42 779 l 109 779 l 109 1012 l 469 1012 q 716 927 630 1012 q 792 779 773 869 l 869 779 l 869 709 l 800 709 q 801 682 801 695 q 800 655 801 668 l 869 655 l 869 585 l 792 585 q 716 437 773 494 q 469 351 630 351 l 326 351 l 326 0 l 109 0 l 109 585 l 42 585 l 42 655 l 109 655 m 326 779 l 550 779 q 543 786 546 783 q 446 823 509 823 l 326 823 l 326 779 "},";":{"x_min":78.671875,"x_max":360.140625,"ha":500,"o":"m 139 262 l 360 262 l 360 55 l 208 -197 l 78 -197 l 139 55 l 139 262 m 139 759 l 360 759 l 360 497 l 139 497 l 139 759 "},"f":{"x_min":23.734375,"x_max":554.78125,"ha":543,"o":"m 554 1055 l 554 895 l 434 895 q 369 877 387 895 q 351 812 351 858 l 351 759 l 537 759 l 537 585 l 351 585 l 351 0 l 132 0 l 132 585 l 23 585 l 23 759 l 132 759 l 132 812 q 194 995 132 936 q 387 1055 257 1055 l 554 1055 "},"ꙇ":{"x_min":103.765625,"x_max":445.59375,"ha":550,"o":"m 103 759 l 322 759 l 322 313 q 345 190 322 221 q 430 159 368 159 l 445 159 l 445 0 l 360 0 q 169 80 235 0 q 103 313 103 160 l 103 759 "},"A":{"x_min":6.109375,"x_max":961.71875,"ha":967,"o":"m 668 184 l 300 184 l 242 0 l 6 0 l 343 1012 l 623 1012 l 961 0 l 725 0 l 668 184 m 358 372 l 608 372 l 484 775 l 358 372 "},"6":{"x_min":77.3125,"x_max":803.015625,"ha":869,"o":"m 452 499 q 359 455 390 499 q 328 322 328 411 q 359 188 328 233 q 452 144 390 144 q 545 188 514 144 q 576 322 576 233 q 545 455 576 411 q 452 499 514 499 m 742 986 l 742 798 q 633 844 685 829 q 533 858 582 858 q 369 793 428 858 q 301 601 311 729 q 388 651 341 634 q 491 668 436 668 q 717 577 631 668 q 803 339 803 486 q 707 78 803 176 q 449 -19 611 -19 q 174 113 271 -19 q 77 491 77 246 q 191 886 77 742 q 503 1029 305 1029 q 625 1018 566 1029 q 742 986 685 1007 "},"O":{"x_min":62.390625,"x_max":999.703125,"ha":1062,"o":"m 531 841 q 364 753 423 841 q 305 505 305 665 q 364 257 305 345 q 531 169 423 169 q 698 257 638 169 q 757 505 757 345 q 698 753 757 665 q 531 841 638 841 m 531 1030 q 875 891 750 1030 q 999 505 999 751 q 875 120 999 259 q 531 -19 750 -19 q 187 120 311 -19 q 62 505 62 259 q 187 891 62 751 q 531 1030 311 1030 "},"n":{"x_min":105.125,"x_max":792.171875,"ha":890,"o":"m 792 462 l 792 0 l 572 0 l 572 75 l 572 354 q 568 489 572 452 q 554 544 564 526 q 519 581 541 568 q 470 594 497 594 q 362 536 401 594 q 323 373 323 477 l 323 0 l 105 0 l 105 759 l 323 759 l 323 648 q 428 746 373 714 q 551 777 484 777 q 730 697 669 777 q 792 462 792 616 "},"3":{"x_min":83.421875,"x_max":770.46875,"ha":869,"o":"m 582 545 q 722 454 674 519 q 770 287 770 388 q 666 58 770 137 q 363 -19 562 -19 q 223 -7 293 -19 q 83 30 152 5 l 83 231 q 214 176 149 195 q 342 158 279 158 q 485 193 436 158 q 535 297 535 229 q 484 401 535 366 q 333 437 433 437 l 240 437 l 240 605 l 339 605 q 470 636 427 605 q 514 730 514 667 q 472 820 514 788 q 352 852 430 852 q 238 838 295 852 q 122 796 180 824 l 122 987 q 260 1020 192 1009 q 394 1030 328 1030 q 660 966 572 1030 q 748 771 748 901 q 706 625 748 682 q 582 545 664 569 "},"9":{"x_min":64.4375,"x_max":790.125,"ha":869,"o":"m 124 22 l 124 209 q 232 165 181 180 q 333 151 283 151 q 497 216 438 151 q 566 408 556 280 q 477 357 524 374 q 375 340 430 340 q 150 431 236 340 q 64 669 64 521 q 160 931 64 832 q 416 1029 255 1029 q 692 895 594 1029 q 790 518 790 762 q 675 123 790 267 q 362 -19 561 -19 q 239 -9 298 -19 q 124 22 181 1 m 415 510 q 507 554 476 510 q 539 687 539 598 q 507 820 539 775 q 415 865 476 865 q 322 820 353 865 q 290 687 290 775 q 322 554 290 598 q 415 510 353 510 "},"ꙣ":{"x_min":70.53125,"x_max":1125.84375,"ha":1155,"o":"m 234 615 l 234 759 l 1125 759 l 1125 609 l 826 609 l 826 173 l 939 173 l 939 -191 l 783 -191 l 783 0 l 226 0 l 226 -191 l 70 -191 l 70 173 l 107 173 q 205 285 176 199 q 234 615 234 370 m 607 173 l 607 585 l 453 585 l 453 564 q 402 173 453 316 l 607 173 "},"l":{"x_min":105.125,"x_max":323.515625,"ha":428,"o":"m 105 1055 l 323 1055 l 323 0 l 105 0 l 105 1055 "},"¤":{"x_min":45.4375,"x_max":751.46875,"ha":795,"o":"m 265 181 l 138 41 l 45 145 l 171 286 q 145 355 154 319 q 137 434 137 392 q 146 514 137 477 q 173 581 155 550 l 46 720 l 139 825 l 265 685 q 328 715 295 705 q 398 725 361 725 q 464 715 431 725 q 532 687 497 706 l 658 828 l 751 723 l 625 583 q 651 508 642 545 q 659 434 659 471 q 651 356 659 392 q 623 288 642 320 l 750 148 l 656 44 l 529 184 q 469 154 501 164 q 398 144 436 144 q 330 153 363 144 q 265 181 297 162 m 398 286 q 493 329 454 286 q 532 434 532 372 q 493 540 532 497 q 398 583 454 583 q 304 540 343 583 q 265 434 265 497 q 303 328 265 371 q 398 286 341 286 "},"4":{"x_min":56.296875,"x_max":812.515625,"ha":869,"o":"m 460 797 l 202 373 l 460 373 l 460 797 m 421 1012 l 682 1012 l 682 373 l 812 373 l 812 184 l 682 184 l 682 0 l 460 0 l 460 184 l 56 184 l 56 408 l 421 1012 "},"p":{"x_min":105.125,"x_max":838.96875,"ha":895,"o":"m 323 109 l 323 -288 l 105 -288 l 105 759 l 323 759 l 323 648 q 423 746 368 714 q 550 777 478 777 q 757 666 676 777 q 838 379 838 554 q 757 91 838 203 q 550 -19 676 -19 q 423 11 478 -19 q 323 109 368 43 m 468 601 q 361 544 398 601 q 323 379 323 486 q 361 213 323 271 q 468 156 398 156 q 576 213 539 156 q 613 379 613 270 q 576 544 613 487 q 468 601 539 601 "},"à":{"x_min":53.578125,"x_max":745.359375,"ha":843,"o":"m 411 341 q 308 316 343 341 q 274 240 274 290 q 301 167 274 193 q 379 141 329 141 q 482 190 440 141 q 524 314 524 240 l 524 341 l 411 341 m 745 433 l 745 0 l 524 0 l 524 112 q 425 11 480 43 q 292 -19 370 -19 q 119 49 185 -19 q 53 227 53 118 q 136 423 53 361 q 396 486 219 486 l 524 486 l 524 505 q 483 589 524 562 q 356 616 442 616 q 225 600 286 616 q 113 554 165 585 l 113 739 q 254 768 183 758 q 396 777 325 777 q 663 696 581 777 q 745 433 745 615 m 342 1110 l 515 855 l 395 855 l 170 1110 l 342 1110 "},"Ü":{"x_min":114.625,"x_max":900.6875,"ha":1015,"o":"m 114 1012 l 349 1012 l 349 405 q 386 226 349 280 q 507 172 423 172 q 628 226 591 172 q 665 405 665 280 l 665 1012 l 900 1012 l 900 405 q 803 85 900 190 q 507 -19 706 -19 q 211 85 308 -19 q 114 405 114 190 l 114 1012 m 316 1287 l 459 1287 l 459 1121 l 316 1121 l 316 1287 m 556 1287 l 700 1287 l 700 1121 l 556 1121 l 556 1287 "},"ó":{"x_min":53.578125,"x_max":805.046875,"ha":859,"o":"m 430 604 q 319 546 357 604 q 281 379 281 488 q 319 211 281 269 q 430 153 357 153 q 539 211 501 153 q 577 379 577 269 q 539 546 577 488 q 430 604 501 604 m 430 777 q 706 672 607 777 q 805 379 805 566 q 706 86 805 191 q 430 -19 607 -19 q 153 86 253 -19 q 53 379 53 191 q 153 672 53 566 q 430 777 253 777 m 526 1110 l 699 1110 l 474 855 l 354 855 l 526 1110 "},"₴":{"x_min":53.578125,"x_max":1020.71875,"ha":1074,"o":"m 704 442 q 1020 442 704 442 l 1020 310 l 407 310 q 404 279 404 296 q 444 198 404 226 q 562 169 485 169 q 719 195 638 169 q 888 273 801 221 l 888 52 q 714 -1 801 16 q 539 -19 626 -19 q 267 62 356 -19 q 177 310 177 143 l 53 310 l 53 442 l 200 442 q 241 507 217 480 q 332 570 274 543 q 53 570 332 570 l 53 701 l 677 701 q 683 735 683 716 q 643 815 683 790 q 518 841 602 841 q 383 822 455 841 q 237 766 312 803 l 237 980 q 401 1018 322 1005 q 556 1030 480 1030 q 808 949 720 1030 q 896 716 896 868 q 896 701 896 709 l 1020 701 l 1020 570 l 864 570 q 833 524 854 548 q 704 442 787 473 "}}}
